<svg xmlns="http://www.w3.org/2000/svg" xmlns:xlink="http://www.w3.org/1999/xlink" width="220" zoomAndPan="magnify" viewBox="0 0 165 44.999999" height="60" preserveAspectRatio="xMidYMid meet" version="1.0"><defs><g/></defs><g fill="#1877f2" fill-opacity="1"><g transform="translate(-1.498047, 41.62407)"><g><path d="M 10.609375 0.046875 C 10.160156 0.046875 9.820312 -0.253906 9.59375 -0.859375 C 9.113281 -1.921875 8.875 -3.84375 8.875 -6.625 C 8.875 -9.3125 8.925781 -12.398438 9.03125 -15.890625 C 9.0625 -17.003906 9.078125 -18.734375 9.078125 -21.078125 L 8.921875 -21.265625 L 3.59375 -21.265625 C 3.175781 -21.265625 2.847656 -21.492188 2.609375 -21.953125 C 2.367188 -22.421875 2.1875 -23.070312 2.0625 -23.90625 C 1.90625 -24.863281 1.828125 -26.238281 1.828125 -28.03125 L 1.828125 -28.703125 C 1.828125 -29.023438 1.84375 -29.28125 1.875 -29.46875 L 1.875 -30.625 C 1.875 -30.8125 1.96875 -30.976562 2.15625 -31.125 C 2.351562 -31.269531 2.578125 -31.375 2.828125 -31.4375 C 3.148438 -31.53125 3.628906 -31.578125 4.265625 -31.578125 L 7.921875 -31.578125 C 8.722656 -31.578125 9.332031 -31.5625 9.75 -31.53125 L 11.515625 -31.484375 L 28.796875 -31.484375 C 30.046875 -31.484375 30.863281 -31.46875 31.25 -31.4375 C 31.40625 -31.40625 31.628906 -31.375 31.921875 -31.34375 C 32.210938 -31.3125 32.421875 -31.25 32.546875 -31.15625 C 32.765625 -31.0625 32.898438 -30.941406 32.953125 -30.796875 C 33.003906 -30.648438 33.03125 -30.429688 33.03125 -30.140625 L 33.03125 -22.21875 C 33.03125 -21.875 32.882812 -21.632812 32.59375 -21.5 C 32.394531 -21.4375 32.140625 -21.40625 31.828125 -21.40625 L 28.703125 -21.40625 C 27.960938 -21.40625 27.40625 -21.4375 27.03125 -21.5 L 25.578125 -21.5 C 25.296875 -21.5 25.140625 -21.4375 25.109375 -21.3125 C 25.109375 -21.28125 25.09375 -21.238281 25.0625 -21.1875 C 25.03125 -21.144531 25.015625 -21.09375 25.015625 -21.03125 L 25.015625 -18.671875 C 25.015625 -18.191406 24.992188 -17.820312 24.953125 -17.5625 C 24.953125 -16.632812 24.890625 -14.601562 24.765625 -11.46875 L 24.671875 -10.03125 C 24.609375 -8.6875 24.546875 -7.710938 24.484375 -7.109375 L 24.484375 -2.546875 C 24.484375 -1.453125 24.257812 -0.765625 23.8125 -0.484375 C 23.394531 -0.316406 23.101562 -0.21875 22.9375 -0.1875 L 21.75 -0.140625 C 20.5 -0.140625 19.617188 -0.109375 19.109375 -0.046875 L 14.0625 0 C 13.425781 0.03125 12.273438 0.046875 10.609375 0.046875 Z M 10.609375 0.046875 "/></g></g></g><g fill="#1877f2" fill-opacity="1"><g transform="translate(33.197485, 41.62407)"><g><path d="M 3.5 0.046875 C 3.082031 0.046875 2.796875 -0.269531 2.640625 -0.90625 C 2.609375 -1.007812 2.59375 -1.171875 2.59375 -1.390625 C 2.59375 -1.710938 2.65625 -2.191406 2.78125 -2.828125 C 2.84375 -3.242188 2.898438 -3.570312 2.953125 -3.8125 C 3.003906 -4.050781 3.046875 -4.238281 3.078125 -4.375 C 4.035156 -8.882812 4.976562 -12.847656 5.90625 -16.265625 L 9.265625 -31.4375 C 9.265625 -31.5 9.3125 -31.59375 9.40625 -31.71875 C 9.5 -31.851562 9.613281 -31.9375 9.75 -31.96875 L 9.984375 -31.96875 C 9.984375 -31.9375 10.03125 -31.921875 10.125 -31.921875 C 10.507812 -31.921875 10.941406 -31.96875 11.421875 -32.0625 C 11.898438 -32.15625 12.332031 -32.203125 12.71875 -32.203125 C 13.425781 -32.203125 14.082031 -32.15625 14.6875 -32.0625 C 14.976562 -32.0625 15.296875 -32.046875 15.640625 -32.015625 C 15.992188 -31.984375 16.363281 -31.96875 16.75 -31.96875 C 16.875 -31.96875 17.019531 -32 17.1875 -32.0625 L 19.15625 -32.0625 L 20.296875 -32.109375 C 20.523438 -32.140625 20.800781 -32.15625 21.125 -32.15625 C 21.375 -32.15625 21.5 -32.171875 21.5 -32.203125 L 25.921875 -32.203125 C 27.710938 -32.203125 28.894531 -32.171875 29.46875 -32.109375 C 29.5625 -32.109375 29.695312 -32.097656 29.875 -32.078125 C 30.050781 -32.066406 30.15625 -32.03125 30.1875 -31.96875 C 30.414062 -31.96875 30.640625 -31.984375 30.859375 -32.015625 C 31.085938 -32.046875 31.296875 -32.0625 31.484375 -32.0625 C 31.929688 -32.15625 32.363281 -32.203125 32.78125 -32.203125 C 32.976562 -32.203125 33.171875 -32.15625 33.359375 -32.0625 C 33.546875 -31.96875 33.753906 -31.921875 33.984375 -31.921875 L 34.21875 -31.96875 L 34.375 -31.96875 C 34.46875 -31.90625 34.566406 -31.816406 34.671875 -31.703125 C 34.785156 -31.585938 34.84375 -31.5 34.84375 -31.4375 L 38.203125 -16.265625 C 39.234375 -12.523438 40.160156 -8.5625 40.984375 -4.375 C 40.984375 -4.175781 41.050781 -3.96875 41.1875 -3.75 C 41.21875 -3.519531 41.265625 -3.210938 41.328125 -2.828125 C 41.390625 -2.441406 41.421875 -2.125 41.421875 -1.875 C 41.453125 -1.75 41.46875 -1.570312 41.46875 -1.34375 C 41.46875 -0.894531 41.375 -0.523438 41.1875 -0.234375 C 41.050781 -0.046875 40.859375 0.046875 40.609375 0.046875 L 39.984375 0.046875 C 39.503906 0.046875 39.132812 0.03125 38.875 0 L 35.46875 0 C 35.21875 0 35.09375 -0.015625 35.09375 -0.046875 L 32.0625 -0.046875 L 32.0625 -0.140625 C 31.9375 -0.203125 31.773438 -0.234375 31.578125 -0.234375 C 31.578125 -0.234375 31.566406 -0.222656 31.546875 -0.203125 C 31.535156 -0.191406 31.515625 -0.171875 31.484375 -0.140625 C 31.484375 -0.078125 31.453125 -0.046875 31.390625 -0.046875 L 30.859375 -0.046875 C 30.703125 -0.109375 30.382812 -0.140625 29.90625 -0.140625 C 28.945312 -0.203125 28.191406 -0.234375 27.640625 -0.234375 C 27.453125 -0.523438 27.253906 -1.101562 27.046875 -1.96875 C 26.835938 -2.832031 26.625 -3.789062 26.40625 -4.84375 C 26.332031 -5.351562 26.265625 -5.707031 26.203125 -5.90625 C 25.535156 -5.78125 24.65625 -5.71875 23.5625 -5.71875 L 20.6875 -5.71875 L 20.359375 -4.171875 C 19.941406 -2.066406 19.601562 -0.753906 19.34375 -0.234375 C 19.21875 -0.234375 19.054688 -0.203125 18.859375 -0.140625 C 18.796875 -0.109375 18.738281 -0.0820312 18.6875 -0.0625 C 18.644531 -0.0507812 18.625 -0.046875 18.625 -0.046875 L 18.4375 -0.046875 C 18.238281 -0.046875 18.09375 -0.078125 18 -0.140625 C 17.9375 -0.203125 17.859375 -0.234375 17.765625 -0.234375 L 15.59375 -0.140625 L 14.109375 -0.140625 C 13.984375 -0.078125 13.820312 -0.046875 13.625 -0.046875 L 8.59375 -0.046875 C 8.238281 -0.015625 7.519531 0 6.4375 0 L 5.1875 0 C 4.925781 0.03125 4.554688 0.046875 4.078125 0.046875 Z M 25.6875 -11.71875 C 25.457031 -13.28125 25.34375 -14.0625 25.34375 -14.0625 C 25.25 -14.507812 25.085938 -15.359375 24.859375 -16.609375 C 24.796875 -16.929688 24.640625 -17.796875 24.390625 -19.203125 C 24.128906 -20.734375 24 -21.5 24 -21.5 C 23.90625 -22.144531 23.8125 -22.707031 23.71875 -23.1875 L 23.65625 -23.8125 C 23.5625 -23.96875 23.515625 -24.109375 23.515625 -24.234375 L 23.46875 -24.53125 C 23.4375 -24.46875 23.421875 -24.367188 23.421875 -24.234375 C 23.421875 -24.109375 23.390625 -24.03125 23.328125 -24 L 23.328125 -23.8125 L 23.234375 -23.1875 C 23.203125 -22.957031 23.160156 -22.707031 23.109375 -22.4375 C 23.066406 -22.164062 23.007812 -21.867188 22.9375 -21.546875 L 22.703125 -20.203125 C 22.347656 -18.191406 22.140625 -17.023438 22.078125 -16.703125 C 22.046875 -16.347656 21.96875 -15.820312 21.84375 -15.125 C 21.78125 -14.894531 21.710938 -14.554688 21.640625 -14.109375 L 21.265625 -11.90625 L 23.71875 -11.90625 L 24.046875 -12 L 24.140625 -12 C 24.523438 -12 24.816406 -11.96875 25.015625 -11.90625 C 25.140625 -11.90625 25.253906 -11.878906 25.359375 -11.828125 C 25.472656 -11.785156 25.582031 -11.75 25.6875 -11.71875 Z M 25.6875 -11.71875 "/></g></g></g><g fill="#1877f2" fill-opacity="1"><g transform="translate(77.250736, 41.62407)"><g><path d="M 8.921875 0.140625 C 8.609375 0.140625 8.335938 0.109375 8.109375 0.046875 L 5.953125 0.046875 L 3.796875 -0.484375 L 3.640625 -0.859375 C 3.609375 -0.859375 3.59375 -1.035156 3.59375 -1.390625 C 3.53125 -2.347656 3.5 -3.453125 3.5 -4.703125 C 3.5 -5.597656 3.46875 -6.316406 3.40625 -6.859375 C 3.40625 -7.753906 3.390625 -8.425781 3.359375 -8.875 L 3.359375 -10.5625 C 3.203125 -12.03125 3.109375 -13.644531 3.078125 -15.40625 C 3.046875 -17.164062 3.03125 -18.878906 3.03125 -20.546875 L 3.125 -25.4375 C 3.15625 -25.976562 3.171875 -26.8125 3.171875 -27.9375 C 3.171875 -29.050781 3.15625 -29.882812 3.125 -30.4375 C 3.019531 -31.164062 3.226562 -31.707031 3.75 -32.0625 C 4.0625 -32.21875 4.617188 -32.296875 5.421875 -32.296875 C 6.609375 -32.296875 8.128906 -32.332031 9.984375 -32.40625 L 11.046875 -32.5 C 12.960938 -32.625 14.160156 -32.6875 14.640625 -32.6875 C 15.085938 -32.6875 15.40625 -32.671875 15.59375 -32.640625 C 16.039062 -32.609375 16.34375 -32.539062 16.5 -32.4375 C 16.664062 -32.34375 16.820312 -32.179688 16.96875 -31.953125 C 17.113281 -31.734375 17.21875 -31.5625 17.28125 -31.4375 C 17.664062 -30.925781 18.050781 -30.382812 18.4375 -29.8125 C 19.007812 -28.945312 19.472656 -28.273438 19.828125 -27.796875 L 22.984375 -22.9375 L 24.53125 -20.640625 C 24.53125 -21.472656 24.5625 -22.128906 24.625 -22.609375 L 24.625 -27.078125 L 24.765625 -30.484375 C 24.796875 -30.734375 24.828125 -30.90625 24.859375 -31 C 24.890625 -31.101562 24.9375 -31.175781 25 -31.21875 C 25.070312 -31.269531 25.125 -31.3125 25.15625 -31.34375 C 25.539062 -31.664062 25.921875 -31.90625 26.296875 -32.0625 C 26.617188 -32.125 26.878906 -32.15625 27.078125 -32.15625 L 30.390625 -32.15625 C 30.640625 -32.125 31.085938 -32.109375 31.734375 -32.109375 C 32.429688 -32.109375 32.988281 -32.09375 33.40625 -32.0625 L 36.953125 -32.0625 C 37.785156 -32.0625 38.347656 -31.9375 38.640625 -31.6875 C 38.992188 -31.425781 39.171875 -30.863281 39.171875 -30 L 39.125 -29.515625 L 39.078125 -28.75 C 39.046875 -28.5625 39.03125 -28.304688 39.03125 -27.984375 L 39.03125 -27.03125 L 39.125 -26.546875 L 39.125 -25.015625 C 39.09375 -24.460938 39.078125 -23.53125 39.078125 -22.21875 L 39.078125 -18.671875 C 39.046875 -17.835938 39.03125 -16.671875 39.03125 -15.171875 L 39.03125 -3.171875 L 38.828125 -1.34375 C 38.703125 -0.601562 38.445312 -0.15625 38.0625 0 L 37.25 0.046875 L 36.4375 0 L 27.796875 0 C 27.148438 0.0625 26.523438 -0.015625 25.921875 -0.234375 C 25.628906 -0.367188 25.304688 -0.578125 24.953125 -0.859375 L 20.0625 -7.734375 C 20.0625 -7.765625 19.710938 -8.351562 19.015625 -9.5 C 18.753906 -9.882812 18.507812 -10.222656 18.28125 -10.515625 C 18.21875 -10.640625 18.144531 -10.738281 18.0625 -10.8125 C 17.988281 -10.894531 17.9375 -10.9375 17.90625 -10.9375 C 17.613281 -10.9375 17.46875 -10.8125 17.46875 -10.5625 L 17.46875 -9.5 C 17.4375 -9.1875 17.421875 -8.660156 17.421875 -7.921875 L 17.421875 -4.21875 C 17.359375 -3.832031 17.328125 -3.351562 17.328125 -2.78125 L 17.328125 -1.109375 L 17.375 -0.859375 C 17.375 -0.609375 17.242188 -0.453125 16.984375 -0.390625 C 16.828125 -0.253906 16.570312 -0.21875 16.21875 -0.28125 C 15.132812 -0.21875 14.269531 -0.15625 13.625 -0.09375 C 13.25 -0.0625 12.578125 -0.015625 11.609375 0.046875 C 10.648438 0.109375 9.753906 0.140625 8.921875 0.140625 Z M 8.921875 0.140625 "/></g></g></g><g fill="#1877f2" fill-opacity="1"><g transform="translate(119.14452, 41.62407)"><g><path d="M 3.5 0.046875 C 3.082031 0.046875 2.796875 -0.269531 2.640625 -0.90625 C 2.609375 -1.007812 2.59375 -1.171875 2.59375 -1.390625 C 2.59375 -1.710938 2.65625 -2.191406 2.78125 -2.828125 C 2.84375 -3.242188 2.898438 -3.570312 2.953125 -3.8125 C 3.003906 -4.050781 3.046875 -4.238281 3.078125 -4.375 C 4.035156 -8.882812 4.976562 -12.847656 5.90625 -16.265625 L 9.265625 -31.4375 C 9.265625 -31.5 9.3125 -31.59375 9.40625 -31.71875 C 9.5 -31.851562 9.613281 -31.9375 9.75 -31.96875 L 9.984375 -31.96875 C 9.984375 -31.9375 10.03125 -31.921875 10.125 -31.921875 C 10.507812 -31.921875 10.941406 -31.96875 11.421875 -32.0625 C 11.898438 -32.15625 12.332031 -32.203125 12.71875 -32.203125 C 13.425781 -32.203125 14.082031 -32.15625 14.6875 -32.0625 C 14.976562 -32.0625 15.296875 -32.046875 15.640625 -32.015625 C 15.992188 -31.984375 16.363281 -31.96875 16.75 -31.96875 C 16.875 -31.96875 17.019531 -32 17.1875 -32.0625 L 19.15625 -32.0625 L 20.296875 -32.109375 C 20.523438 -32.140625 20.800781 -32.15625 21.125 -32.15625 C 21.375 -32.15625 21.5 -32.171875 21.5 -32.203125 L 25.921875 -32.203125 C 27.710938 -32.203125 28.894531 -32.171875 29.46875 -32.109375 C 29.5625 -32.109375 29.695312 -32.097656 29.875 -32.078125 C 30.050781 -32.066406 30.15625 -32.03125 30.1875 -31.96875 C 30.414062 -31.96875 30.640625 -31.984375 30.859375 -32.015625 C 31.085938 -32.046875 31.296875 -32.0625 31.484375 -32.0625 C 31.929688 -32.15625 32.363281 -32.203125 32.78125 -32.203125 C 32.976562 -32.203125 33.171875 -32.15625 33.359375 -32.0625 C 33.546875 -31.96875 33.753906 -31.921875 33.984375 -31.921875 L 34.21875 -31.96875 L 34.375 -31.96875 C 34.46875 -31.90625 34.566406 -31.816406 34.671875 -31.703125 C 34.785156 -31.585938 34.84375 -31.5 34.84375 -31.4375 L 38.203125 -16.265625 C 39.234375 -12.523438 40.160156 -8.5625 40.984375 -4.375 C 40.984375 -4.175781 41.050781 -3.96875 41.1875 -3.75 C 41.21875 -3.519531 41.265625 -3.210938 41.328125 -2.828125 C 41.390625 -2.441406 41.421875 -2.125 41.421875 -1.875 C 41.453125 -1.75 41.46875 -1.570312 41.46875 -1.34375 C 41.46875 -0.894531 41.375 -0.523438 41.1875 -0.234375 C 41.050781 -0.046875 40.859375 0.046875 40.609375 0.046875 L 39.984375 0.046875 C 39.503906 0.046875 39.132812 0.03125 38.875 0 L 35.46875 0 C 35.21875 0 35.09375 -0.015625 35.09375 -0.046875 L 32.0625 -0.046875 L 32.0625 -0.140625 C 31.9375 -0.203125 31.773438 -0.234375 31.578125 -0.234375 C 31.578125 -0.234375 31.566406 -0.222656 31.546875 -0.203125 C 31.535156 -0.191406 31.515625 -0.171875 31.484375 -0.140625 C 31.484375 -0.078125 31.453125 -0.046875 31.390625 -0.046875 L 30.859375 -0.046875 C 30.703125 -0.109375 30.382812 -0.140625 29.90625 -0.140625 C 28.945312 -0.203125 28.191406 -0.234375 27.640625 -0.234375 C 27.453125 -0.523438 27.253906 -1.101562 27.046875 -1.96875 C 26.835938 -2.832031 26.625 -3.789062 26.40625 -4.84375 C 26.332031 -5.351562 26.265625 -5.707031 26.203125 -5.90625 C 25.535156 -5.78125 24.65625 -5.71875 23.5625 -5.71875 L 20.6875 -5.71875 L 20.359375 -4.171875 C 19.941406 -2.066406 19.601562 -0.753906 19.34375 -0.234375 C 19.21875 -0.234375 19.054688 -0.203125 18.859375 -0.140625 C 18.796875 -0.109375 18.738281 -0.0820312 18.6875 -0.0625 C 18.644531 -0.0507812 18.625 -0.046875 18.625 -0.046875 L 18.4375 -0.046875 C 18.238281 -0.046875 18.09375 -0.078125 18 -0.140625 C 17.9375 -0.203125 17.859375 -0.234375 17.765625 -0.234375 L 15.59375 -0.140625 L 14.109375 -0.140625 C 13.984375 -0.078125 13.820312 -0.046875 13.625 -0.046875 L 8.59375 -0.046875 C 8.238281 -0.015625 7.519531 0 6.4375 0 L 5.1875 0 C 4.925781 0.03125 4.554688 0.046875 4.078125 0.046875 Z M 25.6875 -11.71875 C 25.457031 -13.28125 25.34375 -14.0625 25.34375 -14.0625 C 25.25 -14.507812 25.085938 -15.359375 24.859375 -16.609375 C 24.796875 -16.929688 24.640625 -17.796875 24.390625 -19.203125 C 24.128906 -20.734375 24 -21.5 24 -21.5 C 23.90625 -22.144531 23.8125 -22.707031 23.71875 -23.1875 L 23.65625 -23.8125 C 23.5625 -23.96875 23.515625 -24.109375 23.515625 -24.234375 L 23.46875 -24.53125 C 23.4375 -24.46875 23.421875 -24.367188 23.421875 -24.234375 C 23.421875 -24.109375 23.390625 -24.03125 23.328125 -24 L 23.328125 -23.8125 L 23.234375 -23.1875 C 23.203125 -22.957031 23.160156 -22.707031 23.109375 -22.4375 C 23.066406 -22.164062 23.007812 -21.867188 22.9375 -21.546875 L 22.703125 -20.203125 C 22.347656 -18.191406 22.140625 -17.023438 22.078125 -16.703125 C 22.046875 -16.347656 21.96875 -15.820312 21.84375 -15.125 C 21.78125 -14.894531 21.710938 -14.554688 21.640625 -14.109375 L 21.265625 -11.90625 L 23.71875 -11.90625 L 24.046875 -12 L 24.140625 -12 C 24.523438 -12 24.816406 -11.96875 25.015625 -11.90625 C 25.140625 -11.90625 25.253906 -11.878906 25.359375 -11.828125 C 25.472656 -11.785156 25.582031 -11.75 25.6875 -11.71875 Z M 25.6875 -11.71875 "/></g></g></g><path stroke-linecap="butt" transform="matrix(0.75, 0, 0, 0.75, 0.00000183333, 2.174993)" fill="none" stroke-linejoin="miter" d="M 14.343748 51.063555 C 13.749998 51.063555 13.302082 50.657305 12.999998 49.844805 C 12.364582 48.438555 12.046873 45.881263 12.046873 42.172929 C 12.046873 38.589596 12.109373 34.469804 12.234373 29.813554 C 12.27604 28.32397 12.296873 26.027095 12.296873 22.912511 L 12.109373 22.646886 L 4.999998 22.646886 C 4.447915 22.646886 4.010414 22.339595 3.687498 21.725011 C 3.374998 21.110428 3.130206 20.245845 2.953123 19.131261 C 2.744789 17.850011 2.640623 16.016678 2.640623 13.631261 L 2.640623 12.740636 C 2.640623 12.313552 2.661456 11.969802 2.703123 11.709386 L 2.703123 10.178136 C 2.703123 9.917719 2.828123 9.693761 3.078123 9.506261 C 3.338539 9.308344 3.640623 9.167719 3.984373 9.084386 C 4.411456 8.959386 5.052081 8.896886 5.906248 8.896886 L 10.765623 8.896886 C 11.828123 8.896886 12.635415 8.917719 13.187498 8.959386 L 15.562499 9.021886 L 38.604167 9.021886 C 40.260417 9.021886 41.34375 9.042719 41.854167 9.084386 C 42.072917 9.126052 42.375 9.167719 42.760417 9.209386 C 43.145834 9.251052 43.421875 9.339594 43.588542 9.475011 C 43.890625 9.600011 44.072917 9.761469 44.135417 9.959386 C 44.197917 10.146886 44.229167 10.433344 44.229167 10.818761 L 44.229167 21.381261 C 44.229167 21.850011 44.036459 22.16772 43.651042 22.334386 C 43.401042 22.41772 43.0625 22.459386 42.635417 22.459386 L 38.463542 22.459386 C 37.484375 22.459386 36.739583 22.41772 36.229167 22.334386 L 34.307291 22.334386 C 33.921875 22.334386 33.708333 22.41772 33.666666 22.584386 C 33.666666 22.626053 33.645833 22.683345 33.604166 22.756261 C 33.5625 22.818761 33.541666 22.891678 33.541666 22.975011 L 33.541666 26.115637 C 33.541666 26.751053 33.520833 27.240637 33.479166 27.584387 C 33.479166 28.818762 33.395833 31.527095 33.229166 35.704179 L 33.088541 37.626054 C 33.005208 39.417721 32.921875 40.719804 32.838541 41.532304 L 32.838541 47.61043 C 32.838541 49.058346 32.541666 49.975013 31.947916 50.36043 C 31.385416 50.57918 31 50.709388 30.791666 50.751055 L 29.182291 50.813555 C 27.526041 50.813555 26.354166 50.855222 25.666666 50.938555 L 18.947915 51.001055 C 18.093749 51.042722 16.562499 51.063555 14.343748 51.063555 Z M 51.135417 51.063555 C 50.583334 51.063555 50.197917 50.636472 49.979167 49.782305 C 49.937501 49.657305 49.916667 49.443763 49.916667 49.14168 C 49.916667 48.714596 50.005209 48.073971 50.182292 47.219805 C 50.265626 46.667721 50.338542 46.23543 50.401042 45.92293 C 50.463542 45.600013 50.515626 45.350013 50.557292 45.172929 C 51.838543 39.162512 53.098959 33.870845 54.338543 29.297928 L 58.822918 9.084386 C 58.822918 9.001052 58.885418 8.876052 59.010418 8.709386 C 59.135418 8.532302 59.281251 8.422927 59.447918 8.38126 L 59.776043 8.38126 C 59.776043 8.422927 59.838543 8.44376 59.963543 8.44376 C 60.47396 8.44376 61.052085 8.38126 61.697918 8.25626 C 62.333335 8.13126 62.906252 8.06876 63.416668 8.06876 C 64.364585 8.06876 65.234377 8.13126 66.03646 8.25626 C 66.421877 8.25626 66.84896 8.277094 67.31771 8.31876 C 67.78646 8.360427 68.281252 8.38126 68.802085 8.38126 C 68.968752 8.38126 69.156252 8.339594 69.364585 8.25626 L 71.989585 8.25626 L 73.536461 8.19376 C 73.828127 8.152094 74.187502 8.13126 74.614586 8.13126 C 74.958336 8.13126 75.130211 8.110427 75.130211 8.06876 L 81.020836 8.06876 C 83.406253 8.06876 84.984378 8.110427 85.755211 8.19376 C 85.880211 8.19376 86.057295 8.204177 86.286461 8.22501 C 86.526045 8.245844 86.66667 8.297927 86.708336 8.38126 C 87.01042 8.38126 87.307295 8.360427 87.598961 8.31876 C 87.901045 8.277094 88.182295 8.25626 88.442712 8.25626 C 89.036462 8.13126 89.614587 8.06876 90.177087 8.06876 C 90.427087 8.06876 90.682295 8.13126 90.942712 8.25626 C 91.192712 8.38126 91.468753 8.44376 91.770837 8.44376 L 92.083337 8.38126 L 92.286462 8.38126 C 92.411462 8.464594 92.546878 8.584385 92.692712 8.740636 C 92.848962 8.886469 92.927087 9.001052 92.927087 9.084386 L 97.395837 29.297928 C 98.755212 34.297929 99.994796 39.589596 101.109379 45.172929 C 101.109379 45.433346 101.192712 45.714596 101.359379 46.01668 C 101.401046 46.308346 101.463546 46.709388 101.546879 47.219805 C 101.640629 47.730221 101.687504 48.157305 101.687504 48.501055 C 101.729171 48.678138 101.750004 48.912513 101.750004 49.20418 C 101.750004 49.808346 101.619796 50.303138 101.359379 50.688555 C 101.192712 50.938555 100.937504 51.063555 100.593754 51.063555 L 99.765629 51.063555 C 99.130212 51.063555 98.640629 51.042722 98.302087 51.001055 L 93.755212 51.001055 C 93.411462 51.001055 93.239587 50.980222 93.239587 50.938555 L 89.208337 50.938555 L 89.208337 50.813555 C 89.04167 50.730222 88.828128 50.688555 88.567712 50.688555 C 88.567712 50.688555 88.557295 50.698972 88.536462 50.719805 C 88.515628 50.740638 88.484378 50.771888 88.442712 50.813555 C 88.442712 50.896888 88.401045 50.938555 88.317712 50.938555 L 87.614586 50.938555 C 87.395836 50.855222 86.968753 50.813555 86.333336 50.813555 C 85.052086 50.730222 84.046878 50.688555 83.317711 50.688555 C 83.067711 50.303138 82.802086 49.532305 82.520836 48.376055 C 82.239586 47.219805 81.953128 45.938555 81.661461 44.532304 C 81.578128 43.855221 81.489586 43.386471 81.395836 43.126054 C 80.500003 43.303138 79.328128 43.391679 77.880211 43.391679 L 74.036461 43.391679 L 73.598961 45.438555 C 73.036461 48.251055 72.588544 50.001055 72.255211 50.688555 C 72.078127 50.688555 71.864585 50.730222 71.614585 50.813555 C 71.531252 50.855222 71.453127 50.886472 71.38021 50.907305 C 71.31771 50.928138 71.28646 50.938555 71.28646 50.938555 L 71.03646 50.938555 C 70.776044 50.938555 70.583335 50.896888 70.458335 50.813555 C 70.375002 50.730222 70.270835 50.688555 70.145835 50.688555 L 67.25521 50.813555 L 65.270835 50.813555 C 65.104168 50.896888 64.895835 50.938555 64.635418 50.938555 L 57.916668 50.938555 C 57.447918 50.980222 56.489584 51.001055 55.041668 51.001055 L 53.369793 51.001055 C 53.036459 51.042722 52.546876 51.063555 51.901043 51.063555 Z M 80.692711 35.391679 C 80.401044 33.297929 80.255211 32.251054 80.255211 32.251054 C 80.119794 31.657304 79.906253 30.527095 79.614586 28.860428 C 79.531253 28.433345 79.317711 27.287512 78.973961 25.412512 C 78.630211 23.360428 78.458336 22.334386 78.458336 22.334386 C 78.333336 21.48022 78.203128 20.735428 78.067711 20.100011 L 78.005211 19.256261 C 77.880211 19.047928 77.817711 18.860428 77.817711 18.693761 L 77.755211 18.303136 C 77.713544 18.386469 77.692711 18.516678 77.692711 18.693761 C 77.692711 18.860428 77.651044 18.964594 77.567711 19.006261 L 77.567711 19.256261 L 77.427086 20.100011 C 77.385419 20.391678 77.333336 20.719803 77.270836 21.084386 C 77.208336 21.44897 77.135419 21.844803 77.052086 22.271886 L 76.723961 24.068761 C 76.255211 26.756262 75.979169 28.308345 75.895836 28.735428 C 75.854169 29.204178 75.750002 29.907304 75.583336 30.844804 C 75.489586 31.13647 75.401044 31.584387 75.317711 32.188554 L 74.817711 35.126054 L 78.067711 35.126054 L 78.520836 35.001054 L 78.645836 35.001054 C 79.156253 35.001054 79.541669 35.042721 79.802086 35.126054 C 79.968753 35.126054 80.125003 35.157304 80.270836 35.219804 C 80.427086 35.282304 80.567711 35.339596 80.692711 35.391679 Z M 117.104172 51.188555 C 116.677088 51.188555 116.312505 51.146888 116.010422 51.063555 L 113.135421 51.063555 L 110.26563 50.36043 L 110.062505 49.844805 C 110.020838 49.844805 110.000005 49.61043 110.000005 49.14168 C 109.916671 47.86043 109.875005 46.39168 109.875005 44.735429 C 109.875005 43.537513 109.833338 42.573971 109.750005 41.844804 C 109.750005 40.657304 109.729171 39.761471 109.687505 39.157304 L 109.687505 36.922929 C 109.468755 34.954179 109.338546 32.797929 109.29688 30.454179 C 109.255213 28.110428 109.23438 25.834387 109.23438 23.615636 L 109.35938 17.084386 C 109.401046 16.355219 109.42188 15.245844 109.42188 13.756261 C 109.42188 12.266677 109.401046 11.157302 109.35938 10.428136 C 109.23438 9.448969 109.510421 8.725011 110.187505 8.25626 C 110.614588 8.03751 111.364588 7.928135 112.432296 7.928135 C 114.005213 7.928135 116.031255 7.886469 118.510422 7.803135 L 119.916672 7.678135 C 122.479172 7.511469 124.07813 7.428135 124.713547 7.428135 C 125.317714 7.428135 125.744797 7.448969 125.994797 7.490635 C 126.598964 7.532302 127.005214 7.615635 127.213547 7.740635 C 127.432297 7.865635 127.635422 8.079177 127.822922 8.38126 C 128.010422 8.683344 128.151047 8.917719 128.244797 9.084386 C 128.755214 9.771886 129.265631 10.495844 129.776048 11.256261 C 130.546881 12.412511 131.166673 13.308344 131.635423 13.943761 L 135.854173 20.412511 L 137.901048 23.490636 C 137.901048 22.376053 137.942715 21.501053 138.026048 20.865636 L 138.026048 14.912511 L 138.229173 10.365636 C 138.27084 10.021886 138.312506 9.787511 138.354173 9.662511 C 138.39584 9.537511 138.45834 9.443761 138.541673 9.381261 C 138.625006 9.308344 138.687506 9.251052 138.729173 9.209386 C 139.23959 8.782302 139.755215 8.464594 140.276048 8.25626 C 140.703132 8.172927 141.041673 8.13126 141.291673 8.13126 L 145.70834 8.13126 C 146.05209 8.172927 146.64584 8.19376 147.48959 8.19376 C 148.437507 8.19376 149.187507 8.214594 149.73959 8.25626 L 154.473966 8.25626 C 155.578132 8.25626 156.322924 8.428135 156.708341 8.771886 C 157.177091 9.105219 157.411466 9.850011 157.411466 11.006261 L 157.348966 11.646886 L 157.286466 12.678136 C 157.244799 12.928136 157.223966 13.266677 157.223966 13.693761 L 157.223966 14.975011 L 157.348966 15.615636 L 157.348966 17.662511 C 157.307299 18.391678 157.286466 19.631261 157.286466 21.381261 L 157.286466 26.115637 C 157.244799 27.219803 157.223966 28.771887 157.223966 30.782304 L 157.223966 46.782305 L 156.973966 49.20418 C 156.796883 50.193763 156.453133 50.792722 155.942716 51.001055 L 154.848966 51.063555 L 153.770841 51.001055 L 142.260423 51.001055 C 141.406257 51.084388 140.572923 50.980222 139.760423 50.688555 C 139.375006 50.511472 138.947923 50.230221 138.479173 49.844805 L 131.947923 40.704179 C 131.947923 40.652096 131.479173 39.860429 130.541673 38.329179 C 130.197923 37.818762 129.880214 37.370846 129.588548 36.985429 C 129.494797 36.818762 129.395839 36.683346 129.291672 36.579179 C 129.187506 36.464596 129.114589 36.407304 129.072922 36.407304 C 128.687506 36.407304 128.494797 36.579179 128.494797 36.922929 L 128.494797 38.329179 C 128.453131 38.756262 128.432297 39.459387 128.432297 40.438554 L 128.432297 45.376055 C 128.348964 45.886471 128.307297 46.521888 128.307297 47.282305 L 128.307297 49.532305 L 128.369797 49.844805 C 128.369797 50.188555 128.197922 50.402096 127.854172 50.48543 C 127.645839 50.662513 127.302089 50.70418 126.822922 50.61043 C 125.375006 50.70418 124.223964 50.792722 123.369797 50.876055 C 122.85938 50.917722 121.963547 50.980222 120.682297 51.063555 C 119.401047 51.146888 118.208338 51.188555 117.104172 51.188555 Z M 165.729175 51.063555 C 165.177091 51.063555 164.791675 50.636472 164.572925 49.782305 C 164.531258 49.657305 164.510425 49.443763 164.510425 49.14168 C 164.510425 48.714596 164.598966 48.073971 164.77605 47.219805 C 164.859383 46.667721 164.9323 46.23543 164.9948 45.92293 C 165.0573 45.600013 165.109383 45.350013 165.15105 45.172929 C 166.4323 39.162512 167.692717 33.870845 168.9323 29.297928 L 173.416675 9.084386 C 173.416675 9.001052 173.479175 8.876052 173.604175 8.709386 C 173.729175 8.532302 173.875009 8.422927 174.041675 8.38126 L 174.3698 8.38126 C 174.3698 8.422927 174.4323 8.44376 174.5573 8.44376 C 175.067717 8.44376 175.645842 8.38126 176.291675 8.25626 C 176.927092 8.13126 177.500009 8.06876 178.010426 8.06876 C 178.958342 8.06876 179.833342 8.13126 180.635426 8.25626 C 181.020842 8.25626 181.447926 8.277094 181.916676 8.31876 C 182.385426 8.360427 182.880218 8.38126 183.401051 8.38126 C 183.567718 8.38126 183.755218 8.339594 183.963551 8.25626 L 186.588551 8.25626 L 188.135426 8.19376 C 188.427093 8.152094 188.786468 8.13126 189.213551 8.13126 C 189.557301 8.13126 189.729176 8.110427 189.729176 8.06876 L 195.614593 8.06876 C 198.00001 8.06876 199.578135 8.110427 200.348969 8.19376 C 200.473969 8.19376 200.651052 8.204177 200.880219 8.22501 C 201.119802 8.245844 201.260427 8.297927 201.302094 8.38126 C 201.604177 8.38126 201.901052 8.360427 202.192719 8.31876 C 202.494802 8.277094 202.776052 8.25626 203.036469 8.25626 C 203.630219 8.13126 204.208344 8.06876 204.770844 8.06876 C 205.020844 8.06876 205.276052 8.13126 205.536469 8.25626 C 205.786469 8.38126 206.062511 8.44376 206.364594 8.44376 L 206.677094 8.38126 L 206.880219 8.38126 C 207.005219 8.464594 207.140636 8.584385 207.286469 8.740636 C 207.442719 8.886469 207.520844 9.001052 207.520844 9.084386 L 211.989594 29.297928 C 213.354178 34.297929 214.593761 39.589596 215.708345 45.172929 C 215.708345 45.433346 215.791678 45.714596 215.958345 46.01668 C 216.000011 46.308346 216.062511 46.709388 216.145845 47.219805 C 216.239595 47.730221 216.28647 48.157305 216.28647 48.501055 C 216.328136 48.678138 216.34897 48.912513 216.34897 49.20418 C 216.34897 49.808346 216.218761 50.303138 215.958345 50.688555 C 215.791678 50.938555 215.53647 51.063555 215.19272 51.063555 L 214.364595 51.063555 C 213.729178 51.063555 213.239595 51.042722 212.895844 51.001055 L 208.348969 51.001055 C 208.005219 51.001055 207.833344 50.980222 207.833344 50.938555 L 203.802094 50.938555 L 203.802094 50.813555 C 203.635427 50.730222 203.421886 50.688555 203.161469 50.688555 C 203.161469 50.688555 203.151052 50.698972 203.130219 50.719805 C 203.109386 50.740638 203.078136 50.771888 203.036469 50.813555 C 203.036469 50.896888 202.994802 50.938555 202.911469 50.938555 L 202.208344 50.938555 C 201.989594 50.855222 201.56251 50.813555 200.927094 50.813555 C 199.645844 50.730222 198.640635 50.688555 197.911469 50.688555 C 197.661469 50.303138 197.395844 49.532305 197.114593 48.376055 C 196.833343 47.219805 196.546885 45.938555 196.255218 44.532304 C 196.171885 43.855221 196.083343 43.386471 195.989593 43.126054 C 195.09376 43.303138 193.927093 43.391679 192.479177 43.391679 L 188.635426 43.391679 L 188.197926 45.438555 C 187.635426 48.251055 187.18751 50.001055 186.854176 50.688555 C 186.677093 50.688555 186.463551 50.730222 186.213551 50.813555 C 186.130218 50.855222 186.052093 50.886472 185.979176 50.907305 C 185.916676 50.928138 185.885426 50.938555 185.885426 50.938555 L 185.635426 50.938555 C 185.375009 50.938555 185.182301 50.896888 185.057301 50.813555 C 184.973968 50.730222 184.869801 50.688555 184.744801 50.688555 L 181.854176 50.813555 L 179.869801 50.813555 C 179.703134 50.896888 179.489592 50.938555 179.229176 50.938555 L 172.510425 50.938555 C 172.041675 50.980222 171.083342 51.001055 169.635425 51.001055 L 167.96355 51.001055 C 167.630217 51.042722 167.140633 51.063555 166.4948 51.063555 Z M 195.286468 35.391679 C 194.994802 33.297929 194.848968 32.251054 194.848968 32.251054 C 194.713552 31.657304 194.50001 30.527095 194.213552 28.860428 C 194.130218 28.433345 193.916677 27.287512 193.572927 25.412512 C 193.229177 23.360428 193.057302 22.334386 193.057302 22.334386 C 192.932302 21.48022 192.802093 20.735428 192.666677 20.100011 L 192.604177 19.256261 C 192.479177 19.047928 192.416677 18.860428 192.416677 18.693761 L 192.354177 18.303136 C 192.31251 18.386469 192.291677 18.516678 192.291677 18.693761 C 192.291677 18.860428 192.25001 18.964594 192.166676 19.006261 L 192.166676 19.256261 L 192.026051 20.100011 C 191.984385 20.391678 191.932301 20.719803 191.869801 21.084386 C 191.807301 21.44897 191.734385 21.844803 191.651051 22.271886 L 191.322926 24.068761 C 190.854176 26.756262 190.578135 28.308345 190.494801 28.735428 C 190.453135 29.204178 190.348968 29.907304 190.182301 30.844804 C 190.088551 31.13647 190.00001 31.584387 189.916676 32.188554 L 189.416676 35.126054 L 192.666677 35.126054 L 193.119802 35.001054 L 193.244802 35.001054 C 193.755218 35.001054 194.140635 35.042721 194.395843 35.126054 C 194.56251 35.126054 194.71876 35.157304 194.864593 35.219804 C 195.020843 35.282304 195.161468 35.339596 195.286468 35.391679 Z M 195.286468 35.391679 " stroke="#1877f2" stroke-width="1.039998" stroke-opacity="1" stroke-miterlimit="4"/></svg>