<?xml version="1.0" encoding="UTF-8"?>
<svg width="500" height="500" version="1.0" viewBox="0 0 375 375" xmlns="http://www.w3.org/2000/svg" zoomAndPan="magnify">
<defs>
<clipPath id="a">
<path d="m0 1.5h375v373.5h-375z"/>
</clipPath>
</defs>
<g clip-path="url(#a)">
<path d="m374.98 188.99c0 25.312-4.9531 49.863-14.734 72.98-9.4375 22.324-22.953 42.379-40.172 59.594-17.215 17.215-37.27 30.734-59.605 40.184-23.117 9.7773-47.668 14.734-72.98 14.734-25.297 0-49.863-4.957-72.98-14.734-22.32-9.4492-42.375-22.969-59.59-40.184-17.219-17.215-30.734-37.27-40.172-59.594-9.7812-23.117-14.746-47.668-14.746-72.98 0-25.309 4.9648-49.863 14.746-72.98 9.4375-22.32 22.953-42.375 40.172-59.594 17.215-17.215 37.27-30.73 59.59-40.18 23.117-9.7812 47.684-14.734 72.98-14.734 25.312 0 49.863 4.9531 72.98 14.734 22.336 9.4492 42.391 22.965 59.605 40.18 17.219 17.219 30.734 37.273 40.172 59.594 9.7812 23.117 14.734 47.672 14.734 72.98" fill="#3fb3ff"/>
</g>
<path d="m301.63 162.35c0 5.6992-2.1172 10.906-5.5977 14.859 3.5469 4.2695 5.2656 9.8203 4.7227 15.367-0.62109 6.2969-3.9922 11.68-8.8945 15.035 3.2969 4.3086 4.8008 9.7695 4.1445 15.18-0.71094 5.8516-3.8516 10.879-8.3477 14.188 3.4961 4.3555 5.1172 9.9688 4.4336 15.555-1.2695 10.414-10.25 18.27-20.902 18.27h-103.87c-9.2969 0-16.859-7.5625-16.859-16.863v-0.32812l0.011718-0.32812 4.2812-83.863c0.39063-8.6797 1.9141-19.789 10.172-28.898 2.5859-2.8633 5.1289-4.9648 7.7656-6.4219l0.35547-0.20312c0.25391-0.14062 0.51953-0.27734 0.78516-0.41797 8.4102-4.4453 15.289-10.301 20.473-17.383 6.2578-8.5625 9.5117-15.176 10.223-20.773l0.62109-17.445c0.15234-4.4336 2.0273-8.3867 4.9531-11.234 2.9258-2.8516 6.9023-4.5898 11.312-4.5898 0.41797 0 0.83594 0.027344 1.2539 0.050781 15.469 1.2188 25.246 17.992 26.906 33.953 0.51953 4.9531 0.39453 9.0312-0.39453 13.645-0.82031 4.8125-2.3789 9.6133-4.6211 14.273l-5.2461 10.898-0.125 0.26562-0.14062 0.25391c-0.25391 0.46875-0.46875 0.96094-0.67188 1.457h40.879c12.34 0 22.375 10.031 22.375 22.371v3.1289" fill="#fff"/>
<path d="m143.18 165.53v0.39453l-0.023437 0.39062-5.3359 88.043c-0.19141 10.438-7.0938 18.242-16.188 18.242h-26.543c-9.2344 0-16.203-8.043-16.203-18.711v-0.39062l0.027344-0.39453 5.332-88.031c0.19141-12.133 7.8047-21.242 17.875-21.242h23.184c10.199 0 17.875 9.3359 17.875 21.699" fill="#fff"/>
</svg>
