<?xml version="1.0" encoding="UTF-8"?>
<svg width="500" height="500" version="1.0" viewBox="0 0 375 375" xmlns="http://www.w3.org/2000/svg" zoomAndPan="magnify">
<defs>
<clipPath id="c">
<path d="m375 187.5c0 25.305-4.9531 49.863-14.742 72.984-9.4414 22.332-22.949 42.387-40.176 59.598-17.211 17.227-37.27 30.738-59.598 40.18-23.121 9.7852-47.68 14.738-72.984 14.738s-49.863-4.9531-72.984-14.738c-22.332-9.4414-42.387-22.953-59.598-40.18-17.211-17.211-30.738-37.266-40.18-59.598-9.7852-23.121-14.738-47.68-14.738-72.984s4.9531-49.863 14.738-72.98c9.4414-22.336 22.969-42.391 40.18-59.602 17.211-17.211 37.266-30.738 59.598-40.176 23.121-9.7891 47.68-14.742 72.984-14.742s49.863 4.9531 72.984 14.742c22.328 9.4375 42.387 22.965 59.598 40.176 17.227 17.211 30.734 37.266 40.176 59.602 9.7891 23.117 14.742 47.676 14.742 72.98z"/>
</clipPath>
<clipPath id="a">
<path d="m375 187.5c0 25.305-4.9531 49.863-14.742 72.984-9.4414 22.332-22.949 42.387-40.176 59.598-17.211 17.227-37.27 30.738-59.598 40.18-23.121 9.7852-47.68 14.738-72.984 14.738s-49.863-4.9531-72.984-14.738c-22.332-9.4414-42.387-22.953-59.598-40.18-17.211-17.211-30.738-37.266-40.18-59.598-9.7852-23.121-14.738-47.68-14.738-72.984s4.9531-49.863 14.738-72.98c9.4414-22.336 22.969-42.391 40.18-59.602 17.211-17.211 37.266-30.738 59.598-40.176 23.121-9.7891 47.68-14.742 72.984-14.742s49.863 4.9531 72.984 14.742c22.328 9.4375 42.387 22.965 59.598 40.176 17.227 17.211 30.734 37.266 40.176 59.602 9.7891 23.117 14.742 47.676 14.742 72.98"/>
</clipPath>
<linearGradient id="b" x1="2.27e-16" x2="1" gradientTransform="matrix(375 0 0 375 4.5e-6 187.5)" gradientUnits="userSpaceOnUse">
<stop stop-color="#de062c" offset="0"/>
<stop stop-color="#de062c" offset=".015625"/>
<stop stop-color="#df062c" offset=".023438"/>
<stop stop-color="#e0052c" offset=".03125"/>
<stop stop-color="#e1052c" offset=".046875"/>
<stop stop-color="#e2052c" offset=".054688"/>
<stop stop-color="#e3052c" offset=".0625"/>
<stop stop-color="#e3052c" offset=".070312"/>
<stop stop-color="#e4052c" offset=".078125"/>
<stop stop-color="#e5052c" offset=".085938"/>
<stop stop-color="#e6042c" offset=".09375"/>
<stop stop-color="#e6042c" offset=".10156"/>
<stop stop-color="#e7042c" offset=".10547"/>
<stop stop-color="#e8042c" offset=".10938"/>
<stop stop-color="#e8042c" offset=".11719"/>
<stop stop-color="#e8042c" offset=".125"/>
<stop stop-color="#e9042c" offset=".13281"/>
<stop stop-color="#ea042c" offset=".14062"/>
<stop stop-color="#ea042c" offset=".14453"/>
<stop stop-color="#eb042c" offset=".14844"/>
<stop stop-color="#eb042c" offset=".15625"/>
<stop stop-color="#eb032c" offset=".16406"/>
<stop stop-color="#ec032c" offset=".17188"/>
<stop stop-color="#ed032c" offset=".1875"/>
<stop stop-color="#ed032c" offset=".19531"/>
<stop stop-color="#ee032c" offset=".20312"/>
<stop stop-color="#ee032c" offset=".21875"/>
<stop stop-color="#ef032c" offset=".22656"/>
<stop stop-color="#ef032c" offset=".23438"/>
<stop stop-color="#f0022c" offset=".25"/>
<stop stop-color="#f1022c" offset=".26562"/>
<stop stop-color="#f2022c" offset=".27344"/>
<stop stop-color="#f2022c" offset=".28125"/>
<stop stop-color="#f3022c" offset=".29688"/>
<stop stop-color="#f4022c" offset=".3125"/>
<stop stop-color="#f5022c" offset=".32812"/>
<stop stop-color="#f5022c" offset=".34375"/>
<stop stop-color="#f6022c" offset=".35156"/>
<stop stop-color="#f6022c" offset=".35938"/>
<stop stop-color="#f7012c" offset=".375"/>
<stop stop-color="#f7012c" offset=".39062"/>
<stop stop-color="#f8012c" offset=".40625"/>
<stop stop-color="#f8012c" offset=".4375"/>
<stop stop-color="#f9012c" offset=".45312"/>
<stop stop-color="#f9012c" offset=".46875"/>
<stop stop-color="#fa012c" offset=".48438"/>
<stop stop-color="#fa012c" offset=".5"/>
<stop stop-color="#fb012c" offset=".51562"/>
<stop stop-color="#fb012c" offset=".53125"/>
<stop stop-color="#fb002c" offset=".5625"/>
<stop stop-color="#fc002c" offset=".59375"/>
<stop stop-color="#fc002c" offset=".625"/>
<stop stop-color="#fd002c" offset=".65625"/>
<stop stop-color="#fd002c" offset=".6875"/>
<stop stop-color="#fd002c" offset=".75"/>
<stop stop-color="#fe002c" offset=".875"/>
<stop stop-color="#fe002c" offset="1"/>
</linearGradient>
</defs>
<g clip-path="url(#c)">
<g clip-path="url(#a)">
<rect x="-37.5" y="-37.5" width="450" height="450" fill="url(#b)"/>
</g>
</g>
<path d="m298.59 186.12c-0.0625-1.1367-0.14844-2.0625-0.22266-2.6094-4.0547-31.34-30.051-54.973-60.469-54.973-16.305 0-31.625 6.6094-43.148 18.613-2.707 2.8203-5.1289 5.8516-7.2578 9.0859-2.1211-3.2305-4.5469-6.2656-7.25-9.082-11.527-12.008-26.848-18.617-43.152-18.617-30.398 0-56.395 23.633-60.453 54.848-0.10547 0.74219-0.17969 1.6523-0.22266 2.7578-1.7109 30.785 15.086 57 48.559 75.812 19.945 11.203 36.617 17.785 57.559 22.723 0.046875 0.007812 0.097656 0.023437 0.14844 0.03125 1.5781 0.35547 3.1953 0.53516 4.8125 0.53516 1.6094 0 3.2148-0.17578 4.7773-0.52734 0.0625-0.015625 0.125-0.027344 0.19141-0.039062 20.938-4.9375 37.613-11.52 57.551-22.723 33.473-18.812 50.27-45.027 48.578-75.836" fill="#fff"/>
</svg>
