<svg xmlns="http://www.w3.org/2000/svg" xmlns:xlink="http://www.w3.org/1999/xlink" width="500" zoomAndPan="magnify" viewBox="0 0 375 374.999991" height="500" preserveAspectRatio="xMidYMid meet" version="1.0"><defs><clipPath id="id1"><path d="M 153.621094 128 L 247 128 L 247 221.5625 L 153.621094 221.5625 Z M 153.621094 128 " clip-rule="nonzero"/></clipPath></defs><path fill="#1877f2" d="M 131.746094 113.261719 C 128.300781 115.054688 124.445312 116.019531 120.488281 116.015625 C 118.855469 116.019531 117.242188 115.855469 115.660156 115.53125 C 114.71875 110.875 112.425781 106.5625 109.015625 103.152344 C 104.449219 98.585938 98.261719 96.023438 91.808594 96.027344 C 85.351562 96.023438 79.164062 98.589844 74.597656 103.152344 L 40.179688 137.570312 C 35.617188 142.136719 33.050781 148.324219 33.054688 154.78125 C 33.050781 161.234375 35.613281 167.425781 40.179688 171.988281 C 44.746094 176.554688 50.9375 179.121094 57.386719 179.117188 C 63.84375 179.117188 70.035156 176.554688 74.597656 171.988281 L 109.015625 137.570312 C 110.785156 135.804688 112.25 133.789062 113.386719 131.617188 C 115.714844 132.03125 118.089844 132.238281 120.488281 132.238281 C 124.066406 132.242188 127.589844 131.769531 130.988281 130.859375 C 129.160156 137.679688 125.566406 143.964844 120.488281 149.042969 L 86.070312 183.460938 C 78.464844 191.070312 68.144531 195.339844 57.386719 195.339844 C 46.632812 195.34375 36.3125 191.070312 28.707031 183.460938 C 21.101562 175.855469 16.828125 165.539062 16.824219 154.777344 C 16.828125 144.023438 21.101562 133.707031 28.707031 126.097656 L 63.125 91.679688 C 70.734375 84.074219 81.050781 79.800781 91.804688 79.796875 C 102.566406 79.800781 112.882812 84.074219 120.488281 91.679688 C 126.398438 97.589844 130.296875 105.140625 131.746094 113.261719 Z M 131.746094 113.261719 " fill-opacity="1" fill-rule="evenodd"/><path fill="#01081d" d="M 80.554688 98.785156 C 83.996094 96.984375 87.847656 96.023438 91.804688 96.023438 C 93.441406 96.027344 95.058594 96.191406 96.632812 96.507812 C 97.574219 101.164062 99.867188 105.480469 103.28125 108.890625 C 107.84375 113.453125 114.03125 116.015625 120.488281 116.019531 C 126.941406 116.015625 133.136719 113.457031 137.699219 108.890625 L 172.117188 74.472656 C 176.683594 69.910156 179.242188 63.714844 179.246094 57.261719 C 179.242188 50.808594 176.679688 44.617188 172.117188 40.054688 C 167.550781 35.488281 161.363281 32.925781 154.90625 32.925781 C 148.453125 32.925781 142.265625 35.492188 137.699219 40.054688 L 103.28125 74.472656 C 101.515625 76.242188 100.042969 78.25 98.910156 80.429688 C 96.582031 80.015625 94.203125 79.800781 91.804688 79.800781 C 88.230469 79.796875 84.703125 80.273438 81.304688 81.179688 C 83.132812 74.363281 86.730469 68.078125 91.808594 63 L 126.226562 28.582031 C 133.835938 20.976562 144.148438 16.699219 154.90625 16.699219 C 165.667969 16.703125 175.980469 20.972656 183.589844 28.582031 C 191.199219 36.191406 195.464844 46.503906 195.46875 57.261719 C 195.46875 68.019531 191.199219 78.339844 183.589844 85.945312 L 149.171875 120.363281 C 141.566406 127.972656 131.246094 132.242188 120.488281 132.242188 C 109.726562 132.242188 99.414062 127.972656 91.808594 120.363281 C 85.894531 114.449219 81.996094 106.902344 80.554688 98.785156 Z M 80.554688 98.785156 " fill-opacity="1" fill-rule="evenodd"/><path fill="#1877f2" d="M 294.613281 276.128906 C 291.167969 277.921875 287.3125 278.886719 283.355469 278.882812 C 281.722656 278.886719 280.109375 278.722656 278.527344 278.402344 C 277.585938 273.746094 275.292969 269.429688 271.882812 266.023438 C 267.320312 261.457031 261.128906 258.890625 254.675781 258.894531 C 248.21875 258.894531 242.03125 261.457031 237.464844 266.023438 L 203.046875 300.441406 C 198.484375 305.003906 195.917969 311.195312 195.921875 317.652344 C 195.917969 324.101562 198.480469 330.292969 203.046875 334.859375 C 207.613281 339.425781 213.804688 341.988281 220.253906 341.984375 C 226.710938 341.988281 232.902344 339.421875 237.464844 334.859375 L 271.882812 300.441406 C 273.652344 298.671875 275.117188 296.65625 276.253906 294.484375 C 278.585938 294.898438 280.957031 295.109375 283.355469 295.109375 C 286.933594 295.109375 290.457031 294.636719 293.855469 293.726562 C 292.027344 300.546875 288.4375 306.835938 283.359375 311.914062 L 248.9375 346.332031 C 241.332031 353.9375 231.015625 358.210938 220.253906 358.207031 C 209.5 358.210938 199.183594 353.9375 191.574219 346.332031 C 183.96875 338.722656 179.695312 328.40625 179.691406 317.644531 C 179.695312 306.890625 183.96875 296.574219 191.574219 288.96875 L 225.992188 254.550781 C 233.601562 246.941406 243.917969 242.667969 254.671875 242.667969 C 265.433594 242.667969 275.75 246.941406 283.359375 254.550781 C 289.265625 260.457031 293.167969 268.007812 294.613281 276.128906 Z M 294.613281 276.128906 " fill-opacity="1" fill-rule="evenodd"/><path fill="#01081d" d="M 243.421875 261.652344 C 246.863281 259.855469 250.714844 258.890625 254.671875 258.890625 C 256.308594 258.894531 257.925781 259.058594 259.5 259.375 C 260.445312 264.03125 262.738281 268.347656 266.148438 271.761719 C 270.710938 276.320312 276.902344 278.882812 283.355469 278.886719 C 289.808594 278.882812 296.003906 276.324219 300.566406 271.761719 L 334.984375 237.34375 C 339.550781 232.777344 342.109375 226.582031 342.113281 220.132812 C 342.109375 213.675781 339.546875 207.484375 334.984375 202.925781 C 330.421875 198.359375 324.230469 195.792969 317.773438 195.792969 C 311.320312 195.796875 305.132812 198.359375 300.566406 202.925781 L 266.148438 237.34375 C 264.382812 239.109375 262.914062 241.117188 261.777344 243.296875 C 259.449219 242.882812 257.074219 242.667969 254.675781 242.667969 C 251.097656 242.667969 247.570312 243.140625 244.175781 244.046875 C 246 237.230469 249.597656 230.949219 254.675781 225.871094 L 289.09375 191.453125 C 296.703125 183.84375 307.015625 179.566406 317.773438 179.570312 C 328.535156 179.570312 338.847656 183.839844 346.457031 191.453125 C 354.066406 199.058594 358.335938 209.371094 358.335938 220.128906 C 358.339844 230.890625 354.066406 241.207031 346.457031 248.816406 L 312.039062 283.234375 C 304.433594 290.839844 294.117188 295.113281 283.355469 295.109375 C 272.597656 295.109375 262.285156 290.839844 254.675781 283.234375 C 248.761719 277.320312 244.863281 269.769531 243.421875 261.652344 Z M 243.421875 261.652344 " fill-opacity="1" fill-rule="evenodd"/><path fill="#1877f2" d="M 127.941406 214.167969 C 131.386719 212.375 135.242188 211.410156 139.195312 211.414062 C 140.828125 211.410156 142.445312 211.574219 144.023438 211.894531 C 144.96875 216.550781 147.261719 220.867188 150.667969 224.273438 C 155.234375 228.839844 161.425781 231.40625 167.875 231.402344 C 174.332031 231.402344 180.523438 228.839844 185.085938 224.273438 L 219.503906 189.855469 C 224.066406 185.292969 226.632812 179.101562 226.628906 172.644531 C 226.632812 166.195312 224.070312 160.003906 219.503906 155.4375 C 214.9375 150.871094 208.75 148.308594 202.296875 148.3125 C 195.839844 148.308594 189.648438 150.875 185.085938 155.4375 L 150.667969 189.855469 C 148.898438 191.625 147.4375 193.640625 146.296875 195.8125 C 143.96875 195.398438 141.597656 195.1875 139.199219 195.1875 C 135.621094 195.1875 132.09375 195.660156 128.699219 196.566406 C 130.523438 189.75 134.117188 183.460938 139.195312 178.382812 L 173.613281 143.964844 C 181.21875 136.359375 191.539062 132.085938 202.296875 132.089844 C 213.050781 132.085938 223.371094 136.359375 230.976562 143.964844 C 238.582031 151.570312 242.859375 161.890625 242.859375 172.652344 C 242.855469 183.40625 238.585938 193.722656 230.976562 201.328125 L 196.558594 235.746094 C 188.953125 243.355469 178.632812 247.628906 167.878906 247.628906 C 157.121094 247.628906 146.800781 243.355469 139.195312 235.746094 C 133.285156 229.839844 129.386719 222.289062 127.941406 214.167969 Z M 127.941406 214.167969 " fill-opacity="1" fill-rule="evenodd"/><path fill="#01081d" d="M 179.128906 228.644531 C 175.691406 230.441406 171.835938 231.40625 167.878906 231.40625 C 166.242188 231.402344 164.628906 231.238281 163.050781 230.921875 C 162.109375 226.265625 159.816406 221.949219 156.402344 218.535156 C 151.84375 213.976562 145.652344 211.410156 139.195312 211.410156 C 132.746094 211.414062 126.546875 213.972656 121.984375 218.535156 L 87.566406 252.953125 C 83.003906 257.519531 80.445312 263.714844 80.441406 270.164062 C 80.441406 276.621094 83.007812 282.8125 87.566406 287.371094 C 92.132812 291.9375 98.324219 294.503906 104.78125 294.503906 C 111.230469 294.5 117.421875 291.9375 121.984375 287.371094 L 156.402344 252.953125 C 158.171875 251.1875 159.640625 249.175781 160.773438 247 C 163.101562 247.414062 165.480469 247.628906 167.878906 247.628906 C 171.457031 247.628906 174.980469 247.15625 178.378906 246.25 C 176.550781 253.066406 172.953125 259.347656 167.875 264.425781 L 133.457031 298.84375 C 125.851562 306.453125 115.539062 310.730469 104.777344 310.726562 C 94.019531 310.726562 83.707031 306.457031 76.09375 298.84375 C 68.488281 291.238281 64.21875 280.925781 64.214844 270.167969 C 64.214844 259.40625 68.488281 249.089844 76.09375 241.480469 L 110.511719 207.0625 C 118.117188 199.457031 128.4375 195.183594 139.195312 195.1875 C 149.957031 195.1875 160.269531 199.457031 167.875 207.0625 C 173.789062 212.976562 177.691406 220.527344 179.128906 228.644531 Z M 179.128906 228.644531 " fill-opacity="1" fill-rule="evenodd"/><g clip-path="url(#id1)"><path fill="#1877f2" d="M 246.179688 161.933594 C 242.710938 163.738281 238.828125 164.710938 234.84375 164.707031 C 233.199219 164.710938 231.574219 164.546875 229.980469 164.222656 C 229.03125 159.53125 226.722656 155.1875 223.292969 151.753906 C 218.691406 147.15625 212.460938 144.574219 205.960938 144.578125 C 199.460938 144.574219 193.226562 147.15625 188.628906 151.753906 L 153.96875 186.414062 C 149.371094 191.011719 146.789062 197.246094 146.792969 203.75 C 146.789062 210.246094 149.371094 216.480469 153.96875 221.078125 C 158.566406 225.675781 164.800781 228.257812 171.296875 228.253906 C 177.800781 228.257812 184.035156 225.671875 188.628906 221.078125 L 223.292969 186.414062 C 225.070312 184.636719 226.546875 182.605469 227.695312 180.417969 C 230.039062 180.835938 232.429688 181.046875 234.84375 181.046875 C 238.445312 181.046875 241.996094 180.570312 245.417969 179.65625 C 243.578125 186.523438 239.960938 192.855469 234.84375 197.96875 L 200.183594 232.632812 C 192.523438 240.292969 182.132812 244.59375 171.296875 244.59375 C 160.464844 244.597656 150.074219 240.292969 142.414062 232.632812 C 134.753906 224.972656 130.449219 214.578125 130.449219 203.742188 C 130.453125 192.914062 134.753906 182.523438 142.414062 174.863281 L 177.078125 140.199219 C 184.738281 132.539062 195.128906 128.238281 205.957031 128.234375 C 216.792969 128.234375 227.183594 132.539062 234.84375 140.199219 C 240.796875 146.152344 244.722656 153.753906 246.179688 161.933594 Z M 246.179688 161.933594 " fill-opacity="1" fill-rule="evenodd"/></g><path fill="#01081d" d="M 194.628906 147.355469 C 198.09375 145.542969 201.972656 144.574219 205.957031 144.574219 C 207.605469 144.578125 209.234375 144.742188 210.820312 145.0625 C 211.769531 149.75 214.078125 154.097656 217.515625 157.535156 C 222.109375 162.125 228.34375 164.707031 234.84375 164.710938 C 241.34375 164.707031 247.582031 162.128906 252.175781 157.535156 L 286.839844 122.871094 C 291.4375 118.277344 294.011719 112.035156 294.015625 105.539062 C 294.011719 99.039062 291.433594 92.804688 286.839844 88.210938 C 282.242188 83.613281 276.007812 81.03125 269.503906 81.027344 C 263.007812 81.03125 256.773438 83.613281 252.175781 88.210938 L 217.515625 122.871094 C 215.738281 124.652344 214.253906 126.675781 213.113281 128.867188 C 210.769531 128.453125 208.375 128.234375 205.960938 128.234375 C 202.355469 128.234375 198.808594 128.710938 195.386719 129.625 C 197.226562 122.757812 200.847656 116.433594 205.960938 111.320312 L 240.625 76.65625 C 248.285156 68.996094 258.671875 64.6875 269.503906 64.691406 C 280.339844 64.691406 290.726562 68.992188 298.394531 76.65625 C 306.054688 84.316406 310.351562 94.703125 310.355469 105.539062 C 310.355469 116.375 306.054688 126.765625 298.394531 134.425781 L 263.730469 169.085938 C 256.070312 176.75 245.679688 181.050781 234.84375 181.046875 C 224.007812 181.046875 213.621094 176.746094 205.960938 169.085938 C 200.007812 163.132812 196.078125 155.527344 194.628906 147.355469 Z M 194.628906 147.355469 " fill-opacity="1" fill-rule="evenodd"/></svg>