<?xml version="1.0" standalone="no"?>
<!DOCTYPE svg PUBLIC "-//W3C//DTD SVG 20010904//EN"
 "http://www.w3.org/TR/2001/REC-SVG-20010904/DTD/svg10.dtd">
<svg version="1.0" xmlns="http://www.w3.org/2000/svg"
 width="700.000000pt" height="700.000000pt" viewBox="0 0 700.000000 700.000000"
 preserveAspectRatio="xMidYMid meet">
<metadata>
Created by potrace 1.14, written by Peter Selinger 2001-2017
</metadata>
<g transform="translate(0.000000,700.000000) scale(0.100000,-0.100000)"
fill="#000000" stroke="none">
<path d="M2809 6686 c-2 -2 -22 -6 -44 -9 -105 -15 -232 -70 -325 -140 -30
-23 -221 -208 -425 -412 -396 -397 -430 -439 -477 -581 -13 -40 -26 -64 -36
-64 -26 0 -135 -52 -207 -99 -49 -32 -177 -153 -425 -401 -195 -195 -372 -375
-391 -400 -109 -135 -168 -312 -163 -490 2 -76 25 -201 44 -240 5 -8 16 -34
25 -56 56 -137 201 -286 350 -362 241 -122 555 -96 779 65 75 54 785 769 827
833 36 55 99 191 99 214 0 7 19 19 43 25 63 19 176 78 227 119 91 73 767 758
806 817 249 374 135 860 -257 1088 -48 29 -135 61 -209 79 -44 10 -233 21
-241 14z m227 -325 c274 -97 390 -408 247 -661 -45 -78 -782 -810 -816 -810
-3 0 -14 31 -26 69 -80 262 -266 447 -528 524 -28 9 -54 13 -57 10 -3 -4 -6
-2 -6 3 0 29 80 116 409 444 307 306 375 370 425 393 114 56 243 66 352 28z
m-1120 -1203 c97 -48 186 -145 220 -240 27 -75 27 -77 -9 -67 -145 41 -275
171 -316 317 -9 31 -9 32 17 26 15 -4 54 -20 88 -36z m-406 -26 c0 -29 41
-143 73 -202 97 -180 288 -330 470 -370 31 -7 57 -17 57 -23 0 -5 -15 -30 -34
-56 -49 -65 -713 -722 -761 -752 -94 -60 -209 -82 -321 -63 -298 50 -461 371
-327 644 34 70 61 99 387 426 416 416 456 450 456 396z"/>
<path d="M4855 5771 c-89 -22 -165 -55 -235 -100 -71 -46 -24 -2 -450 -426
-226 -225 -389 -396 -416 -436 -25 -36 -61 -104 -79 -149 -19 -46 -40 -85 -47
-86 -38 -6 -155 -61 -209 -99 -59 -41 -267 -244 -664 -647 -242 -245 -282
-298 -331 -432 -12 -33 -28 -63 -35 -67 -8 -4 -41 -17 -74 -29 -127 -49 -184
-97 -565 -479 -382 -382 -409 -412 -459 -502 -61 -111 -84 -201 -87 -341 -4
-153 13 -224 83 -367 38 -79 61 -110 132 -181 93 -94 170 -144 280 -184 94
-34 145 -41 281 -40 95 1 129 6 197 28 92 30 186 80 251 133 57 46 719 709
765 765 37 45 99 155 111 198 16 53 31 80 46 80 26 1 143 55 200 93 95 63 859
818 922 910 40 58 89 161 101 208 5 20 17 29 49 38 68 21 172 77 232 126 30
24 215 205 410 400 426 428 459 471 507 673 31 131 22 311 -22 426 -53 140
-142 265 -244 341 -22 16 -42 33 -45 36 -11 12 -122 69 -167 85 -132 46 -315
57 -438 25z m295 -301 c239 -65 387 -323 321 -560 -31 -111 -60 -145 -429
-516 -320 -320 -420 -414 -442 -414 -4 0 -12 26 -19 58 -38 173 -182 363 -349
461 -67 40 -199 91 -234 91 -10 0 -18 3 -18 6 0 23 106 137 422 451 327 326
370 365 429 393 36 17 86 34 110 39 57 11 152 7 209 -9z m-1494 -1312 c57
-174 167 -318 316 -415 60 -39 175 -90 218 -98 20 -3 15 -28 -18 -90 -19 -35
-136 -159 -397 -420 -204 -203 -384 -378 -401 -387 l-31 -17 -13 56 c-23 106
-89 227 -176 325 -92 104 -259 201 -386 223 l-37 7 16 32 c8 17 183 198 387
402 304 304 382 377 431 402 33 17 63 31 67 32 3 0 14 -24 24 -52z m402 -26
c42 -35 81 -80 116 -136 l18 -28 -40 22 c-52 29 -111 86 -152 145 -31 45 -32
47 -9 40 13 -4 43 -24 67 -43z m-1263 -1127 c113 -53 217 -176 240 -282 6 -29
5 -31 -17 -26 -66 16 -149 64 -201 117 -58 57 -82 95 -115 183 l-19 50 21 -5
c12 -2 53 -19 91 -37z m-308 -261 c100 -164 236 -270 429 -333 l85 -28 -37
-49 c-56 -74 -713 -727 -763 -758 -171 -108 -394 -91 -542 42 -104 94 -150
194 -152 332 -2 98 20 180 66 250 39 58 708 732 766 771 l45 29 30 -93 c17
-51 50 -124 73 -163z"/>
<path d="M5830 3642 c-117 -16 -268 -80 -357 -150 -66 -52 -733 -720 -785
-786 -46 -57 -101 -163 -117 -222 -10 -36 -16 -42 -53 -53 -62 -18 -155 -67
-216 -113 -81 -60 -775 -760 -817 -823 -85 -129 -128 -267 -128 -415 0 -91 2
-113 24 -208 30 -136 148 -310 279 -410 77 -59 229 -124 329 -139 53 -8 202
-8 246 -1 102 18 210 62 300 122 59 39 744 714 818 807 43 54 99 160 118 224
7 25 17 45 22 45 25 0 166 65 220 102 94 63 793 765 849 853 45 70 85 160 109
245 19 70 17 272 -5 355 -73 281 -298 496 -581 557 -51 10 -209 17 -255 10z
m190 -306 c75 -13 170 -65 231 -125 145 -146 175 -371 73 -550 -46 -79 -783
-811 -817 -811 -3 0 -15 33 -27 72 -39 129 -95 224 -190 319 -47 47 -113 102
-147 122 -65 38 -189 86 -229 89 -29 3 -29 4 -3 47 28 47 713 730 769 768 101
67 213 90 340 69z m-1113 -1198 c75 -27 105 -46 160 -99 52 -49 88 -103 110
-163 26 -73 26 -75 -10 -65 -113 32 -231 130 -281 231 -26 53 -48 118 -41 118
2 0 30 -10 62 -22z m-311 -196 c54 -116 194 -283 271 -323 15 -8 30 -16 33
-19 4 -5 34 -20 121 -61 9 -4 41 -13 72 -20 32 -8 57 -17 57 -22 0 -5 -10 -23
-21 -40 -37 -54 -718 -731 -767 -764 -81 -52 -160 -75 -253 -74 -255 2 -455
208 -448 461 1 41 8 94 15 118 32 105 61 139 429 507 198 198 371 367 384 375
12 8 30 20 39 26 14 10 18 3 34 -57 9 -38 25 -86 34 -107z"/>
</g>
</svg>
