<svg xmlns="http://www.w3.org/2000/svg" width="500" zoomAndPan="magnify" viewBox="0 0 375 374.999991" height="500"
     preserveAspectRatio="xMidYMid meet" version="1.0"><defs><clipPath id="47bad17b53"><path d="M 68 0 L 345.796875 0 L 345.796875 375 L 68 375 Z M 68 0 " clip-rule="nonzero"/></clipPath><clipPath id="cd030b798d"><path d="M 29.296875 145 L 308 145 L 308 288 L 29.296875 288 Z M 29.296875 145 " clip-rule="nonzero"/></clipPath><clipPath id="1004a131a3"><path d="M 254 1 L 345.796875 1 L 345.796875 160 L 254 160 Z M 254 1 " clip-rule="nonzero"/></clipPath><clipPath id="5cb4befd14"><path d="M 252 0 L 345.796875 0 L 345.796875 94 L 252 94 Z M 252 0 " clip-rule="nonzero"/></clipPath></defs><g clip-path="url(#47bad17b53)"><path fill="#f2f2f2" d="M 345.785156 93.335938 L 345.785156 356.289062 C 345.785156 366.660156 337.367188 375 326.992188 375 L 87.417969 375 C 77.042969 375 68.625 366.582031 68.625 356.289062 L 68.625 18.710938 C 68.625 8.339844 77.042969 0 87.417969 0 L 252.496094 0 L 266.328125 13.828125 Z M 345.785156 93.335938 " fill-opacity="1" fill-rule="nonzero"/></g><path fill="#cccccc" d="M 307.371094 175.023438 L 307.371094 287.449219 C 307.371094 295.714844 300.679688 302.40625 292.335938 302.40625 L 68.625 302.40625 L 68.625 159.996094 L 292.335938 159.996094 C 300.679688 159.996094 307.371094 166.757812 307.371094 175.023438 Z M 307.371094 175.023438 " fill-opacity="1" fill-rule="nonzero"/><g clip-path="url(#cd030b798d)"><path fill="#116ea9" d="M 292.414062 287.449219 L 44.34375 287.449219 C 36.074219 287.449219 29.308594 280.6875 29.308594 272.417969 L 29.308594 160.070312 C 29.308594 151.804688 36.074219 145.039062 44.34375 145.039062 L 292.414062 145.039062 C 300.679688 145.039062 307.445312 151.804688 307.445312 160.070312 L 307.445312 272.417969 C 307.445312 280.6875 300.679688 287.449219 292.414062 287.449219 Z M 292.414062 287.449219 " fill-opacity="1" fill-rule="nonzero"/></g><g clip-path="url(#1004a131a3)"><path fill="#e6e6e6" d="M 345.785156 159.542969 L 254 68.011719 L 254 1.878906 L 345.785156 93.335938 Z M 345.785156 159.542969 " fill-opacity="1" fill-rule="nonzero"/></g><g clip-path="url(#5cb4befd14)"><path fill="#b3b3b3" d="M 345.785156 93.335938 L 271.289062 93.335938 C 260.914062 93.335938 252.496094 84.917969 252.496094 74.625 L 252.496094 0 L 266.328125 13.828125 Z M 345.785156 93.335938 " fill-opacity="1" fill-rule="nonzero"/></g><path fill="#ffffff" d="M 127.410156 211.546875 C 127.410156 234.242188 113.5 246.34375 96.664062 248.296875 C 92.980469 248.746094 91.324219 248.746094 87.417969 248.746094 L 59.902344 248.746094 L 59.902344 176.378906 L 87.34375 176.378906 C 91.25 176.378906 92.90625 176.378906 96.589844 176.828125 C 113.5 178.632812 127.410156 188.929688 127.410156 211.546875 Z M 107.5625 211.847656 C 107.5625 198.921875 101.023438 192.007812 91.550781 191.183594 C 89.144531 190.957031 87.417969 190.957031 84.710938 190.957031 L 78.847656 190.957031 L 78.847656 233.941406 L 84.710938 233.941406 C 87.417969 233.941406 89.144531 233.941406 91.550781 233.71875 C 101.097656 232.964844 107.5625 224.773438 107.5625 211.847656 Z M 107.5625 211.847656 " fill-opacity="1" fill-rule="nonzero"/><path fill="#ffffff" d="M 207.691406 212.523438 C 207.691406 235.746094 193.183594 250.175781 170.558594 250.175781 C 147.929688 250.175781 133.421875 235.671875 133.421875 212.523438 C 133.421875 189.226562 147.929688 174.875 170.558594 174.875 C 193.183594 174.875 207.691406 189.226562 207.691406 212.523438 Z M 188.296875 212.523438 C 188.296875 197.121094 181.457031 188.703125 170.484375 188.703125 C 159.507812 188.703125 152.667969 197.121094 152.667969 212.523438 C 152.667969 227.855469 159.507812 236.347656 170.484375 236.347656 C 181.457031 236.347656 188.296875 227.855469 188.296875 212.523438 Z M 188.296875 212.523438 " fill-opacity="1" fill-rule="nonzero"/><path fill="#ffffff" d="M 282.414062 200.125 L 282.488281 201.175781 L 263.546875 201.175781 L 263.320312 200.125 C 261.742188 192.382812 257.007812 188.703125 249.339844 188.703125 C 240.316406 188.703125 233.476562 196.292969 233.476562 211.925781 C 233.476562 230.183594 241.070312 236.347656 249.488281 236.347656 C 256.855469 236.347656 261.59375 231.839844 263.171875 223.871094 L 263.394531 222.820312 L 282.265625 222.820312 L 282.1875 223.871094 C 280.386719 241.308594 267.003906 250.175781 248.8125 250.175781 C 229.34375 250.175781 213.632812 237.550781 213.632812 213.050781 C 213.632812 187.875 229.867188 174.875 249.488281 174.875 C 270.3125 174.875 280.910156 185.847656 282.414062 200.125 Z M 282.414062 200.125 " fill-opacity="1" fill-rule="nonzero"/></svg>