<svg xmlns="http://www.w3.org/2000/svg" width="500" zoomAndPan="magnify" viewBox="0 0 375 374.999991" height="500"
     preserveAspectRatio="xMidYMid meet" version="1.0"><defs><clipPath id="65da1a501f"><path d="M 68 0 L 345.796875 0 L 345.796875 375 L 68 375 Z M 68 0 " clip-rule="nonzero"/></clipPath><clipPath id="1717050710"><path d="M 29.296875 145 L 308 145 L 308 288 L 29.296875 288 Z M 29.296875 145 " clip-rule="nonzero"/></clipPath><clipPath id="b6b06938b2"><path d="M 254 1 L 345.796875 1 L 345.796875 160 L 254 160 Z M 254 1 " clip-rule="nonzero"/></clipPath><clipPath id="9b2b98a184"><path d="M 252 0 L 345.796875 0 L 345.796875 94 L 252 94 Z M 252 0 " clip-rule="nonzero"/></clipPath></defs><g clip-path="url(#65da1a501f)"><path fill="#f2f2f2" d="M 345.785156 93.335938 L 345.785156 356.289062 C 345.785156 366.660156 337.367188 375 326.992188 375 L 87.417969 375 C 77.042969 375 68.625 366.582031 68.625 356.289062 L 68.625 18.710938 C 68.625 8.339844 77.042969 0 87.417969 0 L 252.496094 0 L 266.328125 13.828125 Z M 345.785156 93.335938 " fill-opacity="1" fill-rule="nonzero"/></g><path fill="#cccccc" d="M 307.371094 175.023438 L 307.371094 287.449219 C 307.371094 295.714844 300.679688 302.40625 292.335938 302.40625 L 68.625 302.40625 L 68.625 159.996094 L 292.335938 159.996094 C 300.679688 159.996094 307.371094 166.757812 307.371094 175.023438 Z M 307.371094 175.023438 " fill-opacity="1" fill-rule="nonzero"/><g clip-path="url(#1717050710)"><path fill="#ff0000" d="M 292.414062 287.449219 L 44.34375 287.449219 C 36.074219 287.449219 29.308594 280.6875 29.308594 272.417969 L 29.308594 160.070312 C 29.308594 151.804688 36.074219 145.039062 44.34375 145.039062 L 292.414062 145.039062 C 300.679688 145.039062 307.445312 151.804688 307.445312 160.070312 L 307.445312 272.417969 C 307.445312 280.6875 300.679688 287.449219 292.414062 287.449219 Z M 292.414062 287.449219 " fill-opacity="1" fill-rule="nonzero"/></g><g clip-path="url(#b6b06938b2)"><path fill="#e6e6e6" d="M 345.785156 159.542969 L 254 68.011719 L 254 1.878906 L 345.785156 93.335938 Z M 345.785156 159.542969 " fill-opacity="1" fill-rule="nonzero"/></g><g clip-path="url(#9b2b98a184)"><path fill="#b3b3b3" d="M 345.785156 93.335938 L 271.289062 93.335938 C 260.914062 93.335938 252.496094 84.917969 252.496094 74.625 L 252.496094 0 L 266.328125 13.828125 Z M 345.785156 93.335938 " fill-opacity="1" fill-rule="nonzero"/></g><path fill="#ffffff" d="M 130.039062 199.824219 C 130.039062 214.101562 120.492188 221.542969 109.96875 222.820312 C 106.058594 223.273438 103.128906 223.347656 98.617188 223.347656 L 90.199219 223.347656 L 90.199219 248.746094 L 71.179688 248.746094 L 71.179688 176.378906 L 98.542969 176.378906 C 103.054688 176.378906 105.984375 176.453125 109.894531 176.902344 C 120.417969 178.105469 130.039062 185.546875 130.039062 199.824219 Z M 110.269531 199.824219 C 110.269531 194.339844 107.414062 191.558594 102.601562 191.105469 C 101.25 191.03125 99.519531 191.03125 97.566406 191.03125 L 90.199219 191.03125 L 90.199219 208.691406 L 97.566406 208.691406 C 99.59375 208.691406 101.25 208.691406 102.601562 208.617188 C 107.414062 208.089844 110.269531 205.234375 110.269531 199.824219 Z M 110.269531 199.824219 " fill-opacity="1" fill-rule="nonzero"/><path fill="#ffffff" d="M 206.414062 211.546875 C 206.414062 234.242188 192.507812 246.34375 175.667969 248.296875 C 171.984375 248.746094 170.332031 248.746094 166.421875 248.746094 L 138.984375 248.746094 L 138.984375 176.378906 L 166.421875 176.378906 C 170.332031 176.378906 171.984375 176.378906 175.667969 176.828125 C 192.507812 178.632812 206.414062 188.929688 206.414062 211.546875 Z M 186.644531 211.847656 C 186.644531 198.921875 180.105469 192.007812 170.632812 191.183594 C 168.226562 190.957031 166.5 190.957031 163.792969 190.957031 L 157.929688 190.957031 L 157.929688 233.941406 L 163.792969 233.941406 C 166.5 233.941406 168.226562 233.941406 170.632812 233.71875 C 180.105469 232.964844 186.644531 224.773438 186.644531 211.847656 Z M 186.644531 211.847656 " fill-opacity="1" fill-rule="nonzero"/><path fill="#ffffff" d="M 236.710938 205.085938 L 269.257812 205.085938 L 269.257812 219.738281 L 236.710938 219.738281 L 236.710938 248.671875 L 217.765625 248.671875 L 217.765625 176.300781 L 272.417969 176.300781 L 272.417969 190.957031 L 236.710938 190.957031 Z M 236.710938 205.085938 " fill-opacity="1" fill-rule="nonzero"/></svg>