<svg xmlns="http://www.w3.org/2000/svg" width="500" zoomAndPan="magnify" viewBox="0 0 375 374.999991" height="500"
     preserveAspectRatio="xMidYMid meet" version="1.0"><defs><clipPath id="15556832fe"><path d="M 68 0 L 345.796875 0 L 345.796875 375 L 68 375 Z M 68 0 " clip-rule="nonzero"/></clipPath><clipPath id="ce1497f39f"><path d="M 29.296875 145 L 308 145 L 308 288 L 29.296875 288 Z M 29.296875 145 " clip-rule="nonzero"/></clipPath><clipPath id="5eb2131e8e"><path d="M 254 1 L 345.796875 1 L 345.796875 160 L 254 160 Z M 254 1 " clip-rule="nonzero"/></clipPath><clipPath id="c98139c8ea"><path d="M 252 0 L 345.796875 0 L 345.796875 94 L 252 94 Z M 252 0 " clip-rule="nonzero"/></clipPath></defs><g clip-path="url(#15556832fe)"><path fill="#f2f2f2" d="M 345.785156 93.335938 L 345.785156 356.289062 C 345.785156 366.660156 337.367188 375 326.992188 375 L 87.417969 375 C 77.042969 375 68.625 366.582031 68.625 356.289062 L 68.625 18.710938 C 68.625 8.339844 77.042969 0 87.417969 0 L 252.496094 0 L 266.328125 13.828125 Z M 345.785156 93.335938 " fill-opacity="1" fill-rule="nonzero"/></g><path fill="#cccccc" d="M 307.371094 175.023438 L 307.371094 287.449219 C 307.371094 295.714844 300.605469 302.40625 292.335938 302.40625 L 68.625 302.40625 L 68.625 159.996094 L 292.335938 159.996094 C 300.679688 159.996094 307.371094 166.757812 307.371094 175.023438 Z M 307.371094 175.023438 " fill-opacity="1" fill-rule="nonzero"/><g clip-path="url(#ce1497f39f)"><path fill="#ca4223" d="M 292.414062 287.449219 L 44.34375 287.449219 C 36.074219 287.449219 29.308594 280.6875 29.308594 272.417969 L 29.308594 160.070312 C 29.308594 151.804688 36.074219 145.039062 44.34375 145.039062 L 292.414062 145.039062 C 300.679688 145.039062 307.445312 151.804688 307.445312 160.070312 L 307.445312 272.417969 C 307.445312 280.6875 300.679688 287.449219 292.414062 287.449219 Z M 292.414062 287.449219 " fill-opacity="1" fill-rule="nonzero"/></g><g clip-path="url(#5eb2131e8e)"><path fill="#e6e6e6" d="M 345.785156 159.542969 L 254 68.011719 L 254 1.878906 L 345.785156 93.335938 Z M 345.785156 159.542969 " fill-opacity="1" fill-rule="nonzero"/></g><g clip-path="url(#c98139c8ea)"><path fill="#b3b3b3" d="M 345.785156 93.335938 L 271.289062 93.335938 C 260.914062 93.335938 252.496094 84.917969 252.496094 74.625 L 252.496094 0 L 266.328125 13.828125 Z M 345.785156 93.335938 " fill-opacity="1" fill-rule="nonzero"/></g><path fill="#ffffff" d="M 136.054688 201.328125 C 136.054688 215.605469 126.507812 223.046875 115.984375 224.324219 C 112.074219 224.773438 109.140625 224.851562 104.632812 224.851562 L 96.210938 224.851562 L 96.210938 250.25 L 77.269531 250.25 L 77.269531 177.878906 L 104.632812 177.878906 C 109.140625 177.878906 112.074219 177.957031 115.984375 178.40625 C 126.429688 179.609375 136.054688 187.050781 136.054688 201.328125 Z M 116.285156 201.328125 C 116.285156 195.839844 113.425781 193.0625 108.617188 192.609375 C 107.261719 192.535156 105.535156 192.535156 103.578125 192.535156 L 96.210938 192.535156 L 96.210938 210.195312 L 103.578125 210.195312 C 105.609375 210.195312 107.261719 210.195312 108.617188 210.121094 C 113.425781 209.59375 116.285156 206.738281 116.285156 201.328125 Z M 116.285156 201.328125 " fill-opacity="1" fill-rule="nonzero"/><path fill="#ffffff" d="M 203.785156 201.328125 C 203.785156 215.605469 194.238281 223.046875 183.714844 224.324219 C 179.804688 224.773438 176.871094 224.851562 172.363281 224.851562 L 163.941406 224.851562 L 163.941406 250.25 L 145 250.25 L 145 177.878906 L 172.363281 177.878906 C 176.871094 177.878906 179.804688 177.957031 183.714844 178.40625 C 194.238281 179.609375 203.785156 187.050781 203.785156 201.328125 Z M 184.015625 201.328125 C 184.015625 195.839844 181.15625 193.0625 176.347656 192.609375 C 174.992188 192.535156 173.265625 192.535156 171.308594 192.535156 L 163.941406 192.535156 L 163.941406 210.195312 L 171.308594 210.195312 C 173.339844 210.195312 174.992188 210.195312 176.347656 210.121094 C 181.15625 209.59375 184.015625 206.738281 184.015625 201.328125 Z M 184.015625 201.328125 " fill-opacity="1" fill-rule="nonzero"/><path fill="#ffffff" d="M 248.363281 192.535156 L 248.363281 250.25 L 229.417969 250.25 L 229.417969 192.535156 L 205.8125 192.535156 L 205.8125 177.878906 L 271.890625 177.878906 L 271.890625 192.535156 Z M 248.363281 192.535156 " fill-opacity="1" fill-rule="nonzero"/></svg>