<svg xmlns="http://www.w3.org/2000/svg" width="500" zoomAndPan="magnify" viewBox="0 0 375 374.999991" height="500"
     preserveAspectRatio="xMidYMid meet" version="1.0"><defs><clipPath id="065c0683d4"><path d="M 68 0 L 345.796875 0 L 345.796875 375 L 68 375 Z M 68 0 " clip-rule="nonzero"/></clipPath><clipPath id="5c3480fa23"><path d="M 29.296875 145 L 308 145 L 308 288 L 29.296875 288 Z M 29.296875 145 " clip-rule="nonzero"/></clipPath><clipPath id="f196d07ed2"><path d="M 254 1 L 345.796875 1 L 345.796875 160 L 254 160 Z M 254 1 " clip-rule="nonzero"/></clipPath><clipPath id="8e840e0e58"><path d="M 252 0 L 345.796875 0 L 345.796875 94 L 252 94 Z M 252 0 " clip-rule="nonzero"/></clipPath></defs><g clip-path="url(#065c0683d4)"><path fill="#f2f2f2" d="M 345.785156 93.335938 L 345.785156 356.289062 C 345.785156 366.660156 337.367188 375 326.992188 375 L 87.417969 375 C 77.042969 375 68.625 366.582031 68.625 356.289062 L 68.625 18.710938 C 68.625 8.339844 77.042969 0 87.417969 0 L 252.496094 0 L 266.328125 13.828125 Z M 345.785156 93.335938 " fill-opacity="1" fill-rule="nonzero"/></g><path fill="#cccccc" d="M 307.371094 175.023438 L 307.371094 287.449219 C 307.371094 295.714844 300.605469 302.40625 292.335938 302.40625 L 68.625 302.40625 L 68.625 159.996094 L 292.335938 159.996094 C 300.679688 159.996094 307.371094 166.757812 307.371094 175.023438 Z M 307.371094 175.023438 " fill-opacity="1" fill-rule="nonzero"/><g clip-path="url(#5c3480fa23)"><path fill="#0071bc" d="M 292.414062 287.449219 L 44.34375 287.449219 C 36.074219 287.449219 29.308594 280.6875 29.308594 272.417969 L 29.308594 160.070312 C 29.308594 151.804688 36.074219 145.039062 44.34375 145.039062 L 292.414062 145.039062 C 300.679688 145.039062 307.445312 151.804688 307.445312 160.070312 L 307.445312 272.417969 C 307.445312 280.6875 300.679688 287.449219 292.414062 287.449219 Z M 292.414062 287.449219 " fill-opacity="1" fill-rule="nonzero"/></g><g clip-path="url(#f196d07ed2)"><path fill="#e6e6e6" d="M 345.785156 159.542969 L 254 68.011719 L 254 1.878906 L 345.785156 93.335938 Z M 345.785156 159.542969 " fill-opacity="1" fill-rule="nonzero"/></g><g clip-path="url(#8e840e0e58)"><path fill="#b3b3b3" d="M 345.785156 93.335938 L 271.289062 93.335938 C 260.914062 93.335938 252.496094 84.917969 252.496094 74.625 L 252.496094 0 L 266.328125 13.828125 Z M 345.785156 93.335938 " fill-opacity="1" fill-rule="nonzero"/></g><path fill="#ffffff" d="M 116.734375 248.671875 L 96.136719 248.671875 C 94.484375 243.5625 93.429688 239.355469 92.753906 234.167969 C 91.777344 226.203125 88.621094 221.542969 83.808594 221.242188 C 81.703125 221.167969 79.898438 221.167969 77.796875 221.167969 L 73.585938 221.167969 L 73.585938 248.671875 L 54.640625 248.671875 L 54.640625 176.300781 L 83.507812 176.300781 C 88.019531 176.300781 90.949219 176.378906 94.859375 176.828125 C 105.382812 178.105469 114.554688 183.214844 114.554688 195.992188 C 114.554688 205.085938 109.59375 211.171875 99.894531 214.027344 C 107.488281 216.734375 110.195312 222.292969 111.246094 231.011719 C 112.222656 239.277344 113.878906 244.390625 116.734375 248.671875 Z M 80.425781 207.566406 C 82.457031 207.566406 84.109375 207.566406 85.460938 207.488281 C 90.273438 207.039062 94.707031 205.386719 94.707031 199.296875 C 94.707031 193.210938 90.800781 191.558594 85.988281 191.105469 C 84.636719 191.03125 82.90625 191.03125 80.953125 191.03125 L 73.585938 191.03125 L 73.585938 207.640625 L 80.425781 207.640625 Z M 80.425781 207.566406 " fill-opacity="1" fill-rule="nonzero"/><path fill="#ffffff" d="M 146.125 229.882812 L 140.039062 248.671875 L 119.964844 248.671875 L 146.203125 176.300781 L 169.355469 176.300781 L 195.589844 248.671875 L 174.992188 248.671875 L 168.902344 229.882812 Z M 150.789062 215.230469 L 164.242188 215.230469 L 157.476562 192.984375 Z M 150.789062 215.230469 " fill-opacity="1" fill-rule="nonzero"/><path fill="#ffffff" d="M 272.792969 248.671875 L 247.535156 248.671875 L 238.363281 192.308594 L 228.589844 248.671875 L 203.257812 248.671875 L 185.816406 176.300781 L 205.890625 176.300781 L 215.585938 234.019531 L 225.132812 177.355469 L 252.269531 177.355469 L 261.441406 234.242188 L 271.964844 176.300781 L 291.285156 176.300781 Z M 272.792969 248.671875 " fill-opacity="1" fill-rule="nonzero"/></svg>