<svg xmlns="http://www.w3.org/2000/svg" width="500" zoomAndPan="magnify" viewBox="0 0 375 374.999991" height="500"
     preserveAspectRatio="xMidYMid meet" version="1.0"><defs><clipPath id="369579fef1"><path d="M 68 0 L 345.796875 0 L 345.796875 375 L 68 375 Z M 68 0 " clip-rule="nonzero"/></clipPath><clipPath id="898c3338af"><path d="M 29.296875 145 L 308 145 L 308 288 L 29.296875 288 Z M 29.296875 145 " clip-rule="nonzero"/></clipPath><clipPath id="aaa79feb79"><path d="M 254 1 L 345.796875 1 L 345.796875 160 L 254 160 Z M 254 1 " clip-rule="nonzero"/></clipPath><clipPath id="b42126c294"><path d="M 252 0 L 345.796875 0 L 345.796875 94 L 252 94 Z M 252 0 " clip-rule="nonzero"/></clipPath></defs><g clip-path="url(#369579fef1)"><path fill="#f2f2f2" d="M 345.785156 93.335938 L 345.785156 356.289062 C 345.785156 366.660156 337.367188 375 326.992188 375 L 87.417969 375 C 77.042969 375 68.625 366.582031 68.625 356.289062 L 68.625 18.710938 C 68.625 8.339844 77.042969 0 87.417969 0 L 252.496094 0 L 266.328125 13.828125 Z M 345.785156 93.335938 " fill-opacity="1" fill-rule="nonzero"/></g><path fill="#cccccc" d="M 307.371094 175.023438 L 307.371094 287.449219 C 307.371094 295.714844 300.679688 302.40625 292.335938 302.40625 L 68.625 302.40625 L 68.625 159.996094 L 292.335938 159.996094 C 300.679688 159.996094 307.371094 166.757812 307.371094 175.023438 Z M 307.371094 175.023438 " fill-opacity="1" fill-rule="nonzero"/><g clip-path="url(#898c3338af)"><path fill="#00ffff" d="M 292.414062 287.449219 L 44.34375 287.449219 C 36.074219 287.449219 29.308594 280.6875 29.308594 272.417969 L 29.308594 160.070312 C 29.308594 151.804688 36.074219 145.039062 44.34375 145.039062 L 292.414062 145.039062 C 300.679688 145.039062 307.445312 151.804688 307.445312 160.070312 L 307.445312 272.417969 C 307.445312 280.6875 300.679688 287.449219 292.414062 287.449219 Z M 292.414062 287.449219 " fill-opacity="1" fill-rule="nonzero"/></g><g clip-path="url(#aaa79feb79)"><path fill="#e6e6e6" d="M 345.785156 159.542969 L 254 68.011719 L 254 1.878906 L 345.785156 93.335938 Z M 345.785156 159.542969 " fill-opacity="1" fill-rule="nonzero"/></g><g clip-path="url(#b42126c294)"><path fill="#b3b3b3" d="M 345.785156 93.335938 L 271.289062 93.335938 C 260.914062 93.335938 252.496094 84.917969 252.496094 74.625 L 252.496094 0 L 266.328125 13.828125 Z M 345.785156 93.335938 " fill-opacity="1" fill-rule="nonzero"/></g><path fill="#ffffff" d="M 105.984375 191.03125 L 105.984375 248.746094 L 87.042969 248.746094 L 87.042969 191.03125 L 63.511719 191.03125 L 63.511719 176.378906 L 129.589844 176.378906 L 129.589844 191.03125 Z M 105.984375 191.03125 " fill-opacity="1" fill-rule="nonzero"/><path fill="#ffffff" d="M 166.949219 224.25 L 152.816406 248.671875 L 129.964844 248.671875 L 155.972656 212.148438 L 131.769531 176.300781 L 153.871094 176.300781 L 167.550781 200.425781 L 182.285156 176.300781 L 204.085938 176.300781 L 178.75 211.847656 L 204.308594 248.671875 L 182.210938 248.671875 Z M 166.949219 224.25 " fill-opacity="1" fill-rule="nonzero"/><path fill="#ffffff" d="M 247.984375 191.03125 L 247.984375 248.746094 L 229.042969 248.746094 L 229.042969 191.03125 L 205.4375 191.03125 L 205.4375 176.378906 L 271.515625 176.378906 L 271.515625 191.03125 Z M 247.984375 191.03125 " fill-opacity="1" fill-rule="nonzero"/></svg>