<svg xmlns="http://www.w3.org/2000/svg" width="500" zoomAndPan="magnify" viewBox="0 0 375 374.999991" height="500"
     preserveAspectRatio="xMidYMid meet" version="1.0"><defs><clipPath id="f468d05e44"><path d="M 68 0 L 345.796875 0 L 345.796875 375 L 68 375 Z M 68 0 " clip-rule="nonzero"/></clipPath><clipPath id="6bddff9a45"><path d="M 29.296875 145 L 308 145 L 308 288 L 29.296875 288 Z M 29.296875 145 " clip-rule="nonzero"/></clipPath><clipPath id="7e8dc1b489"><path d="M 254 1 L 345.796875 1 L 345.796875 160 L 254 160 Z M 254 1 " clip-rule="nonzero"/></clipPath><clipPath id="a77080113b"><path d="M 252 0 L 345.796875 0 L 345.796875 94 L 252 94 Z M 252 0 " clip-rule="nonzero"/></clipPath></defs><g clip-path="url(#f468d05e44)"><path fill="#f2f2f2" d="M 345.785156 93.335938 L 345.785156 356.289062 C 345.785156 366.660156 337.367188 375 326.992188 375 L 87.417969 375 C 77.042969 375 68.625 366.582031 68.625 356.289062 L 68.625 18.710938 C 68.625 8.339844 77.042969 0 87.417969 0 L 252.496094 0 L 266.328125 13.828125 Z M 345.785156 93.335938 " fill-opacity="1" fill-rule="nonzero"/></g><path fill="#cccccc" d="M 307.371094 175.023438 L 307.371094 287.449219 C 307.371094 295.714844 300.679688 302.40625 292.335938 302.40625 L 68.625 302.40625 L 68.625 159.996094 L 292.335938 159.996094 C 300.679688 159.996094 307.371094 166.757812 307.371094 175.023438 Z M 307.371094 175.023438 " fill-opacity="1" fill-rule="nonzero"/><g clip-path="url(#6bddff9a45)"><path fill="#006837" d="M 292.414062 287.449219 L 44.34375 287.449219 C 36.074219 287.449219 29.308594 280.6875 29.308594 272.417969 L 29.308594 160.070312 C 29.308594 151.804688 36.074219 145.039062 44.34375 145.039062 L 292.414062 145.039062 C 300.679688 145.039062 307.445312 151.804688 307.445312 160.070312 L 307.445312 272.417969 C 307.445312 280.6875 300.679688 287.449219 292.414062 287.449219 Z M 292.414062 287.449219 " fill-opacity="1" fill-rule="nonzero"/></g><g clip-path="url(#7e8dc1b489)"><path fill="#e6e6e6" d="M 345.785156 159.542969 L 254 68.011719 L 254 1.878906 L 345.785156 93.335938 Z M 345.785156 159.542969 " fill-opacity="1" fill-rule="nonzero"/></g><g clip-path="url(#a77080113b)"><path fill="#b3b3b3" d="M 345.785156 93.335938 L 271.289062 93.335938 C 260.914062 93.335938 252.496094 84.917969 252.496094 74.625 L 252.496094 0 L 266.328125 13.828125 Z M 345.785156 93.335938 " fill-opacity="1" fill-rule="nonzero"/></g><path fill="#ffffff" d="M 100.421875 224.25 L 86.289062 248.671875 L 63.511719 248.671875 L 89.523438 212.148438 L 65.316406 176.300781 L 87.417969 176.300781 L 101.097656 200.425781 L 115.832031 176.300781 L 137.632812 176.300781 L 112.300781 211.847656 L 137.859375 248.671875 L 115.757812 248.671875 Z M 100.421875 224.25 " fill-opacity="1" fill-rule="nonzero"/><path fill="#ffffff" d="M 201.605469 248.671875 L 145.902344 248.671875 L 145.902344 176.300781 L 164.84375 176.300781 L 164.84375 232.742188 L 201.605469 232.742188 Z M 201.605469 248.671875 " fill-opacity="1" fill-rule="nonzero"/><path fill="#ffffff" d="M 266.175781 198.621094 L 247.234375 198.621094 C 246.40625 192.609375 243.25 188.628906 237.011719 188.628906 C 232.726562 188.628906 229.71875 190.730469 229.71875 195.164062 C 229.71875 199.75 233.101562 202.605469 245.054688 205.460938 C 261.066406 209.21875 267.605469 217.183594 267.605469 228.304688 C 267.605469 242.8125 253.699219 250.101562 239.113281 250.101562 C 220.699219 250.101562 208.292969 242.734375 207.089844 226.503906 L 226.035156 226.503906 C 227.3125 233.339844 232.875 236.273438 238.589844 236.273438 C 243.851562 236.273438 247.835938 233.566406 247.835938 229.585938 C 247.835938 225.828125 245.128906 222.519531 236.183594 220.339844 C 219.644531 216.28125 209.949219 211.097656 209.949219 196.59375 C 209.949219 182.613281 223.027344 174.800781 237.386719 174.800781 C 256.628906 174.875 264.597656 185.246094 266.175781 198.621094 Z M 266.175781 198.621094 " fill-opacity="1" fill-rule="nonzero"/></svg>