<svg xmlns="http://www.w3.org/2000/svg" width="500" zoomAndPan="magnify" viewBox="0 0 375 374.999991" height="500"
     preserveAspectRatio="xMidYMid meet" version="1.0"><defs><clipPath id="7b0f1a857d"><path d="M 68 0 L 345.796875 0 L 345.796875 375 L 68 375 Z M 68 0 " clip-rule="nonzero"/></clipPath><clipPath id="1ce5f3f5b1"><path d="M 29.296875 145 L 308 145 L 308 288 L 29.296875 288 Z M 29.296875 145 " clip-rule="nonzero"/></clipPath><clipPath id="7d5caf88ef"><path d="M 254 1 L 345.796875 1 L 345.796875 160 L 254 160 Z M 254 1 " clip-rule="nonzero"/></clipPath><clipPath id="327d46c030"><path d="M 252 0 L 345.796875 0 L 345.796875 94 L 252 94 Z M 252 0 " clip-rule="nonzero"/></clipPath></defs><g clip-path="url(#7b0f1a857d)"><path fill="#f2f2f2" d="M 345.785156 93.335938 L 345.785156 356.289062 C 345.785156 366.660156 337.367188 375 326.992188 375 L 87.417969 375 C 77.042969 375 68.625 366.582031 68.625 356.289062 L 68.625 18.710938 C 68.625 8.339844 77.042969 0 87.417969 0 L 252.496094 0 L 266.328125 13.828125 Z M 345.785156 93.335938 " fill-opacity="1" fill-rule="nonzero"/></g><path fill="#cccccc" d="M 307.371094 175.023438 L 307.371094 287.449219 C 307.371094 295.714844 300.605469 302.40625 292.335938 302.40625 L 68.625 302.40625 L 68.625 159.996094 L 292.335938 159.996094 C 300.679688 159.996094 307.371094 166.757812 307.371094 175.023438 Z M 307.371094 175.023438 " fill-opacity="1" fill-rule="nonzero"/><g clip-path="url(#1ce5f3f5b1)"><path fill="#f7cf00" d="M 292.414062 287.449219 L 44.34375 287.449219 C 36.074219 287.449219 29.308594 280.6875 29.308594 272.417969 L 29.308594 160.070312 C 29.308594 151.804688 36.074219 145.039062 44.34375 145.039062 L 292.414062 145.039062 C 300.679688 145.039062 307.445312 151.804688 307.445312 160.070312 L 307.445312 272.417969 C 307.445312 280.6875 300.679688 287.449219 292.414062 287.449219 Z M 292.414062 287.449219 " fill-opacity="1" fill-rule="nonzero"/></g><g clip-path="url(#7d5caf88ef)"><path fill="#e6e6e6" d="M 345.785156 159.542969 L 254 68.011719 L 254 1.878906 L 345.785156 93.335938 Z M 345.785156 159.542969 " fill-opacity="1" fill-rule="nonzero"/></g><g clip-path="url(#327d46c030)"><path fill="#b3b3b3" d="M 345.785156 93.335938 L 271.289062 93.335938 C 260.914062 93.335938 252.496094 84.917969 252.496094 74.625 L 252.496094 0 L 266.328125 13.828125 Z M 345.785156 93.335938 " fill-opacity="1" fill-rule="nonzero"/></g><path fill="#ffffff" d="M 137.558594 250.175781 L 78.09375 250.175781 L 78.09375 235.898438 L 113.953125 192.460938 L 81.027344 192.460938 L 81.027344 177.804688 L 137.179688 177.804688 L 137.179688 192.382812 L 101.625 235.519531 L 137.632812 235.519531 L 137.632812 250.175781 Z M 137.558594 250.175781 " fill-opacity="1" fill-rule="nonzero"/><path fill="#ffffff" d="M 159.65625 177.804688 L 178.601562 177.804688 L 178.601562 250.175781 L 159.65625 250.175781 Z M 159.65625 177.804688 " fill-opacity="1" fill-rule="nonzero"/><path fill="#ffffff" d="M 262.117188 201.328125 C 262.117188 215.605469 252.570312 223.046875 242.046875 224.324219 C 238.136719 224.773438 235.207031 224.851562 230.695312 224.851562 L 222.277344 224.851562 L 222.277344 250.25 L 203.332031 250.25 L 203.332031 177.878906 L 230.695312 177.878906 C 235.207031 177.878906 238.136719 177.957031 242.046875 178.40625 C 252.496094 179.609375 262.117188 187.050781 262.117188 201.328125 Z M 242.273438 201.328125 C 242.273438 195.839844 239.414062 193.0625 234.605469 192.609375 C 233.25 192.535156 231.523438 192.535156 229.566406 192.535156 L 222.203125 192.535156 L 222.203125 210.195312 L 229.566406 210.195312 C 231.597656 210.195312 233.25 210.195312 234.605469 210.121094 C 239.492188 209.59375 242.273438 206.738281 242.273438 201.328125 Z M 242.273438 201.328125 " fill-opacity="1" fill-rule="nonzero"/></svg>